<?xml version="1.0" encoding="utf-8" standalone="no"?>
<!DOCTYPE svg PUBLIC "-//W3C//DTD SVG 1.1//EN"
  "http://www.w3.org/Graphics/SVG/1.1/DTD/svg11.dtd">
<svg xmlns:xlink="http://www.w3.org/1999/xlink" width="496.339687pt" height="352.474375pt" viewBox="0 0 496.339687 352.474375" xmlns="http://www.w3.org/2000/svg" version="1.1">
 <metadata>
  <rdf:RDF xmlns:dc="http://purl.org/dc/elements/1.1/" xmlns:cc="http://creativecommons.org/ns#" xmlns:rdf="http://www.w3.org/1999/02/22-rdf-syntax-ns#">
   <cc:Work>
    <dc:type rdf:resource="http://purl.org/dc/dcmitype/StillImage"/>
    <dc:date>2026-08-25T16:33:10.019607</dc:date>
    <dc:format>image/svg+xml</dc:format>
    <dc:creator>
     <cc:Agent>
      <dc:title>Matplotlib v3.10.8, https://matplotlib.org/</dc:title>
     </cc:Agent>
    </dc:creator>
   </cc:Work>
  </rdf:RDF>
 </metadata>
 <defs>
  <style type="text/css">*{stroke-linejoin: round; stroke-linecap: butt}</style>
 </defs>
 <g id="figure_1">
  <g id="patch_1">
   <path d="M 0 352.474375 
L 496.339687 352.474375 
L 496.339687 0 
L 0 0 
z
" style="fill: #ffffff"/>
  </g>
  <g id="axes_1">
   <g id="patch_2">
    <path d="M 52.160938 314.918125 
L 479.595937 314.918125 
L 479.595937 22.318125 
L 52.160938 22.318125 
z
" style="fill: #ffffff"/>
   </g>
   <g id="line2d_1">
    <path d="M 52.160938 314.918125 
L 52.160938 22.318125 
" clip-path="url(#pc1fdf48e63)" style="fill: none; stroke: #bfbfbf; stroke-width: 0.8; stroke-linecap: square"/>
   </g>
   <g id="matplotlib.axis_1">
    <g id="xtick_1">
     <g id="line2d_2">
      <defs>
       <path id="m3e2e6e4bb6" d="M 0 0 
L 0 3.5 
" style="stroke: #000000; stroke-width: 0.8"/>
      </defs>
      <g>
       <use xlink:href="#m3e2e6e4bb6" x="52.160938" y="314.918125" style="stroke: #000000; stroke-width: 0.8"/>
      </g>
     </g>
     <g id="text_1">
      <!-- 0 -->
      <g transform="translate(48.979688 329.516563) scale(0.1 -0.1)">
       <defs>
        <path id="DejaVuSans-30" d="M 2034 4250 
Q 1547 4250 1301 3770 
Q 1056 3291 1056 2328 
Q 1056 1369 1301 889 
Q 1547 409 2034 409 
Q 2525 409 2770 889 
Q 3016 1369 3016 2328 
Q 3016 3291 2770 3770 
Q 2525 4250 2034 4250 
z
M 2034 4750 
Q 2819 4750 3233 4129 
Q 3647 3509 3647 2328 
Q 3647 1150 3233 529 
Q 2819 -91 2034 -91 
Q 1250 -91 836 529 
Q 422 1150 422 2328 
Q 422 3509 836 4129 
Q 1250 4750 2034 4750 
z
" transform="scale(0.015625)"/>
       </defs>
       <use xlink:href="#DejaVuSans-30"/>
      </g>
     </g>
    </g>
    <g id="xtick_2">
     <g id="line2d_3">
      <g>
       <use xlink:href="#m3e2e6e4bb6" x="137.647938" y="314.918125" style="stroke: #000000; stroke-width: 0.8"/>
      </g>
     </g>
     <g id="text_2">
      <!-- 20 -->
      <g transform="translate(131.285438 329.516563) scale(0.1 -0.1)">
       <defs>
        <path id="DejaVuSans-32" d="M 1228 531 
L 3431 531 
L 3431 0 
L 469 0 
L 469 531 
Q 828 903 1448 1529 
Q 2069 2156 2228 2338 
Q 2531 2678 2651 2914 
Q 2772 3150 2772 3378 
Q 2772 3750 2511 3984 
Q 2250 4219 1831 4219 
Q 1534 4219 1204 4116 
Q 875 4013 500 3803 
L 500 4441 
Q 881 4594 1212 4672 
Q 1544 4750 1819 4750 
Q 2544 4750 2975 4387 
Q 3406 4025 3406 3419 
Q 3406 3131 3298 2873 
Q 3191 2616 2906 2266 
Q 2828 2175 2409 1742 
Q 1991 1309 1228 531 
z
" transform="scale(0.015625)"/>
       </defs>
       <use xlink:href="#DejaVuSans-32"/>
       <use xlink:href="#DejaVuSans-30" transform="translate(63.623047 0)"/>
      </g>
     </g>
    </g>
    <g id="xtick_3">
     <g id="line2d_4">
      <g>
       <use xlink:href="#m3e2e6e4bb6" x="223.134938" y="314.918125" style="stroke: #000000; stroke-width: 0.8"/>
      </g>
     </g>
     <g id="text_3">
      <!-- 40 -->
      <g transform="translate(216.772437 329.516563) scale(0.1 -0.1)">
       <defs>
        <path id="DejaVuSans-34" d="M 2419 4116 
L 825 1625 
L 2419 1625 
L 2419 4116 
z
M 2253 4666 
L 3047 4666 
L 3047 1625 
L 3713 1625 
L 3713 1100 
L 3047 1100 
L 3047 0 
L 2419 0 
L 2419 1100 
L 313 1100 
L 313 1709 
L 2253 4666 
z
" transform="scale(0.015625)"/>
       </defs>
       <use xlink:href="#DejaVuSans-34"/>
       <use xlink:href="#DejaVuSans-30" transform="translate(63.623047 0)"/>
      </g>
     </g>
    </g>
    <g id="xtick_4">
     <g id="line2d_5">
      <g>
       <use xlink:href="#m3e2e6e4bb6" x="308.621938" y="314.918125" style="stroke: #000000; stroke-width: 0.8"/>
      </g>
     </g>
     <g id="text_4">
      <!-- 60 -->
      <g transform="translate(302.259437 329.516563) scale(0.1 -0.1)">
       <defs>
        <path id="DejaVuSans-36" d="M 2113 2584 
Q 1688 2584 1439 2293 
Q 1191 2003 1191 1497 
Q 1191 994 1439 701 
Q 1688 409 2113 409 
Q 2538 409 2786 701 
Q 3034 994 3034 1497 
Q 3034 2003 2786 2293 
Q 2538 2584 2113 2584 
z
M 3366 4563 
L 3366 3988 
Q 3128 4100 2886 4159 
Q 2644 4219 2406 4219 
Q 1781 4219 1451 3797 
Q 1122 3375 1075 2522 
Q 1259 2794 1537 2939 
Q 1816 3084 2150 3084 
Q 2853 3084 3261 2657 
Q 3669 2231 3669 1497 
Q 3669 778 3244 343 
Q 2819 -91 2113 -91 
Q 1303 -91 875 529 
Q 447 1150 447 2328 
Q 447 3434 972 4092 
Q 1497 4750 2381 4750 
Q 2619 4750 2861 4703 
Q 3103 4656 3366 4563 
z
" transform="scale(0.015625)"/>
       </defs>
       <use xlink:href="#DejaVuSans-36"/>
       <use xlink:href="#DejaVuSans-30" transform="translate(63.623047 0)"/>
      </g>
     </g>
    </g>
    <g id="xtick_5">
     <g id="line2d_6">
      <g>
       <use xlink:href="#m3e2e6e4bb6" x="394.108937" y="314.918125" style="stroke: #000000; stroke-width: 0.8"/>
      </g>
     </g>
     <g id="text_5">
      <!-- 80 -->
      <g transform="translate(387.746437 329.516563) scale(0.1 -0.1)">
       <defs>
        <path id="DejaVuSans-38" d="M 2034 2216 
Q 1584 2216 1326 1975 
Q 1069 1734 1069 1313 
Q 1069 891 1326 650 
Q 1584 409 2034 409 
Q 2484 409 2743 651 
Q 3003 894 3003 1313 
Q 3003 1734 2745 1975 
Q 2488 2216 2034 2216 
z
M 1403 2484 
Q 997 2584 770 2862 
Q 544 3141 544 3541 
Q 544 4100 942 4425 
Q 1341 4750 2034 4750 
Q 2731 4750 3128 4425 
Q 3525 4100 3525 3541 
Q 3525 3141 3298 2862 
Q 3072 2584 2669 2484 
Q 3125 2378 3379 2068 
Q 3634 1759 3634 1313 
Q 3634 634 3220 271 
Q 2806 -91 2034 -91 
Q 1263 -91 848 271 
Q 434 634 434 1313 
Q 434 1759 690 2068 
Q 947 2378 1403 2484 
z
M 1172 3481 
Q 1172 3119 1398 2916 
Q 1625 2713 2034 2713 
Q 2441 2713 2670 2916 
Q 2900 3119 2900 3481 
Q 2900 3844 2670 4047 
Q 2441 4250 2034 4250 
Q 1625 4250 1398 4047 
Q 1172 3844 1172 3481 
z
" transform="scale(0.015625)"/>
       </defs>
       <use xlink:href="#DejaVuSans-38"/>
       <use xlink:href="#DejaVuSans-30" transform="translate(63.623047 0)"/>
      </g>
     </g>
    </g>
    <g id="xtick_6">
     <g id="line2d_7">
      <g>
       <use xlink:href="#m3e2e6e4bb6" x="479.595937" y="314.918125" style="stroke: #000000; stroke-width: 0.8"/>
      </g>
     </g>
     <g id="text_6">
      <!-- 100 -->
      <g transform="translate(470.052188 329.516563) scale(0.1 -0.1)">
       <defs>
        <path id="DejaVuSans-31" d="M 794 531 
L 1825 531 
L 1825 4091 
L 703 3866 
L 703 4441 
L 1819 4666 
L 2450 4666 
L 2450 531 
L 3481 531 
L 3481 0 
L 794 0 
L 794 531 
z
" transform="scale(0.015625)"/>
       </defs>
       <use xlink:href="#DejaVuSans-31"/>
       <use xlink:href="#DejaVuSans-30" transform="translate(63.623047 0)"/>
       <use xlink:href="#DejaVuSans-30" transform="translate(127.246094 0)"/>
      </g>
     </g>
    </g>
    <g id="text_7">
     <!-- Gait cycle (%) -->
     <g transform="translate(230.837031 343.194687) scale(0.1 -0.1)">
      <defs>
       <path id="DejaVuSans-47" d="M 3809 666 
L 3809 1919 
L 2778 1919 
L 2778 2438 
L 4434 2438 
L 4434 434 
Q 4069 175 3628 42 
Q 3188 -91 2688 -91 
Q 1594 -91 976 548 
Q 359 1188 359 2328 
Q 359 3472 976 4111 
Q 1594 4750 2688 4750 
Q 3144 4750 3555 4637 
Q 3966 4525 4313 4306 
L 4313 3634 
Q 3963 3931 3569 4081 
Q 3175 4231 2741 4231 
Q 1884 4231 1454 3753 
Q 1025 3275 1025 2328 
Q 1025 1384 1454 906 
Q 1884 428 2741 428 
Q 3075 428 3337 486 
Q 3600 544 3809 666 
z
" transform="scale(0.015625)"/>
       <path id="DejaVuSans-61" d="M 2194 1759 
Q 1497 1759 1228 1600 
Q 959 1441 959 1056 
Q 959 750 1161 570 
Q 1363 391 1709 391 
Q 2188 391 2477 730 
Q 2766 1069 2766 1631 
L 2766 1759 
L 2194 1759 
z
M 3341 1997 
L 3341 0 
L 2766 0 
L 2766 531 
Q 2569 213 2275 61 
Q 1981 -91 1556 -91 
Q 1019 -91 701 211 
Q 384 513 384 1019 
Q 384 1609 779 1909 
Q 1175 2209 1959 2209 
L 2766 2209 
L 2766 2266 
Q 2766 2663 2505 2880 
Q 2244 3097 1772 3097 
Q 1472 3097 1187 3025 
Q 903 2953 641 2809 
L 641 3341 
Q 956 3463 1253 3523 
Q 1550 3584 1831 3584 
Q 2591 3584 2966 3190 
Q 3341 2797 3341 1997 
z
" transform="scale(0.015625)"/>
       <path id="DejaVuSans-69" d="M 603 3500 
L 1178 3500 
L 1178 0 
L 603 0 
L 603 3500 
z
M 603 4863 
L 1178 4863 
L 1178 4134 
L 603 4134 
L 603 4863 
z
" transform="scale(0.015625)"/>
       <path id="DejaVuSans-74" d="M 1172 4494 
L 1172 3500 
L 2356 3500 
L 2356 3053 
L 1172 3053 
L 1172 1153 
Q 1172 725 1289 603 
Q 1406 481 1766 481 
L 2356 481 
L 2356 0 
L 1766 0 
Q 1100 0 847 248 
Q 594 497 594 1153 
L 594 3053 
L 172 3053 
L 172 3500 
L 594 3500 
L 594 4494 
L 1172 4494 
z
" transform="scale(0.015625)"/>
       <path id="DejaVuSans-20" transform="scale(0.015625)"/>
       <path id="DejaVuSans-63" d="M 3122 3366 
L 3122 2828 
Q 2878 2963 2633 3030 
Q 2388 3097 2138 3097 
Q 1578 3097 1268 2742 
Q 959 2388 959 1747 
Q 959 1106 1268 751 
Q 1578 397 2138 397 
Q 2388 397 2633 464 
Q 2878 531 3122 666 
L 3122 134 
Q 2881 22 2623 -34 
Q 2366 -91 2075 -91 
Q 1284 -91 818 406 
Q 353 903 353 1747 
Q 353 2603 823 3093 
Q 1294 3584 2113 3584 
Q 2378 3584 2631 3529 
Q 2884 3475 3122 3366 
z
" transform="scale(0.015625)"/>
       <path id="DejaVuSans-79" d="M 2059 -325 
Q 1816 -950 1584 -1140 
Q 1353 -1331 966 -1331 
L 506 -1331 
L 506 -850 
L 844 -850 
Q 1081 -850 1212 -737 
Q 1344 -625 1503 -206 
L 1606 56 
L 191 3500 
L 800 3500 
L 1894 763 
L 2988 3500 
L 3597 3500 
L 2059 -325 
z
" transform="scale(0.015625)"/>
       <path id="DejaVuSans-6c" d="M 603 4863 
L 1178 4863 
L 1178 0 
L 603 0 
L 603 4863 
z
" transform="scale(0.015625)"/>
       <path id="DejaVuSans-65" d="M 3597 1894 
L 3597 1613 
L 953 1613 
Q 991 1019 1311 708 
Q 1631 397 2203 397 
Q 2534 397 2845 478 
Q 3156 559 3463 722 
L 3463 178 
Q 3153 47 2828 -22 
Q 2503 -91 2169 -91 
Q 1331 -91 842 396 
Q 353 884 353 1716 
Q 353 2575 817 3079 
Q 1281 3584 2069 3584 
Q 2775 3584 3186 3129 
Q 3597 2675 3597 1894 
z
M 3022 2063 
Q 3016 2534 2758 2815 
Q 2500 3097 2075 3097 
Q 1594 3097 1305 2825 
Q 1016 2553 972 2059 
L 3022 2063 
z
" transform="scale(0.015625)"/>
       <path id="DejaVuSans-28" d="M 1984 4856 
Q 1566 4138 1362 3434 
Q 1159 2731 1159 2009 
Q 1159 1288 1364 580 
Q 1569 -128 1984 -844 
L 1484 -844 
Q 1016 -109 783 600 
Q 550 1309 550 2009 
Q 550 2706 781 3412 
Q 1013 4119 1484 4856 
L 1984 4856 
z
" transform="scale(0.015625)"/>
       <path id="DejaVuSans-25" d="M 4653 2053 
Q 4381 2053 4226 1822 
Q 4072 1591 4072 1178 
Q 4072 772 4226 539 
Q 4381 306 4653 306 
Q 4919 306 5073 539 
Q 5228 772 5228 1178 
Q 5228 1588 5073 1820 
Q 4919 2053 4653 2053 
z
M 4653 2450 
Q 5147 2450 5437 2106 
Q 5728 1763 5728 1178 
Q 5728 594 5436 251 
Q 5144 -91 4653 -91 
Q 4153 -91 3862 251 
Q 3572 594 3572 1178 
Q 3572 1766 3864 2108 
Q 4156 2450 4653 2450 
z
M 1428 4353 
Q 1159 4353 1004 4120 
Q 850 3888 850 3481 
Q 850 3069 1003 2837 
Q 1156 2606 1428 2606 
Q 1700 2606 1854 2837 
Q 2009 3069 2009 3481 
Q 2009 3884 1853 4118 
Q 1697 4353 1428 4353 
z
M 4250 4750 
L 4750 4750 
L 1831 -91 
L 1331 -91 
L 4250 4750 
z
M 1428 4750 
Q 1922 4750 2215 4408 
Q 2509 4066 2509 3481 
Q 2509 2891 2217 2550 
Q 1925 2209 1428 2209 
Q 931 2209 642 2551 
Q 353 2894 353 3481 
Q 353 4063 643 4406 
Q 934 4750 1428 4750 
z
" transform="scale(0.015625)"/>
       <path id="DejaVuSans-29" d="M 513 4856 
L 1013 4856 
Q 1481 4119 1714 3412 
Q 1947 2706 1947 2009 
Q 1947 1309 1714 600 
Q 1481 -109 1013 -844 
L 513 -844 
Q 928 -128 1133 580 
Q 1338 1288 1338 2009 
Q 1338 2731 1133 3434 
Q 928 4138 513 4856 
z
" transform="scale(0.015625)"/>
      </defs>
      <use xlink:href="#DejaVuSans-47"/>
      <use xlink:href="#DejaVuSans-61" transform="translate(77.490234 0)"/>
      <use xlink:href="#DejaVuSans-69" transform="translate(138.769531 0)"/>
      <use xlink:href="#DejaVuSans-74" transform="translate(166.552734 0)"/>
      <use xlink:href="#DejaVuSans-20" transform="translate(205.761719 0)"/>
      <use xlink:href="#DejaVuSans-63" transform="translate(237.548828 0)"/>
      <use xlink:href="#DejaVuSans-79" transform="translate(292.529297 0)"/>
      <use xlink:href="#DejaVuSans-63" transform="translate(351.708984 0)"/>
      <use xlink:href="#DejaVuSans-6c" transform="translate(406.689453 0)"/>
      <use xlink:href="#DejaVuSans-65" transform="translate(434.472656 0)"/>
      <use xlink:href="#DejaVuSans-20" transform="translate(495.996094 0)"/>
      <use xlink:href="#DejaVuSans-28" transform="translate(527.783203 0)"/>
      <use xlink:href="#DejaVuSans-25" transform="translate(566.796875 0)"/>
      <use xlink:href="#DejaVuSans-29" transform="translate(661.816406 0)"/>
     </g>
    </g>
   </g>
   <g id="matplotlib.axis_2">
    <g id="ytick_1">
     <g id="line2d_8">
      <defs>
       <path id="m7c1b2f9f47" d="M 0 0 
L -3.5 0 
" style="stroke: #000000; stroke-width: 0.8"/>
      </defs>
      <g>
       <use xlink:href="#m7c1b2f9f47" x="52.160938" y="282.812624" style="stroke: #000000; stroke-width: 0.8"/>
      </g>
     </g>
     <g id="text_8">
      <!-- −0.2 -->
      <g transform="translate(20.878125 286.611843) scale(0.1 -0.1)">
       <defs>
        <path id="DejaVuSans-2212" d="M 678 2272 
L 4684 2272 
L 4684 1741 
L 678 1741 
L 678 2272 
z
" transform="scale(0.015625)"/>
        <path id="DejaVuSans-2e" d="M 684 794 
L 1344 794 
L 1344 0 
L 684 0 
L 684 794 
z
" transform="scale(0.015625)"/>
       </defs>
       <use xlink:href="#DejaVuSans-2212"/>
       <use xlink:href="#DejaVuSans-30" transform="translate(83.789062 0)"/>
       <use xlink:href="#DejaVuSans-2e" transform="translate(147.412109 0)"/>
       <use xlink:href="#DejaVuSans-32" transform="translate(179.199219 0)"/>
      </g>
     </g>
    </g>
    <g id="ytick_2">
     <g id="line2d_9">
      <g>
       <use xlink:href="#m7c1b2f9f47" x="52.160938" y="246.233649" style="stroke: #000000; stroke-width: 0.8"/>
      </g>
     </g>
     <g id="text_9">
      <!-- 0.0 -->
      <g transform="translate(29.257813 250.032868) scale(0.1 -0.1)">
       <use xlink:href="#DejaVuSans-30"/>
       <use xlink:href="#DejaVuSans-2e" transform="translate(63.623047 0)"/>
       <use xlink:href="#DejaVuSans-30" transform="translate(95.410156 0)"/>
      </g>
     </g>
    </g>
    <g id="ytick_3">
     <g id="line2d_10">
      <g>
       <use xlink:href="#m7c1b2f9f47" x="52.160938" y="209.654674" style="stroke: #000000; stroke-width: 0.8"/>
      </g>
     </g>
     <g id="text_10">
      <!-- 0.2 -->
      <g transform="translate(29.257813 213.453893) scale(0.1 -0.1)">
       <use xlink:href="#DejaVuSans-30"/>
       <use xlink:href="#DejaVuSans-2e" transform="translate(63.623047 0)"/>
       <use xlink:href="#DejaVuSans-32" transform="translate(95.410156 0)"/>
      </g>
     </g>
    </g>
    <g id="ytick_4">
     <g id="line2d_11">
      <g>
       <use xlink:href="#m7c1b2f9f47" x="52.160938" y="173.0757" style="stroke: #000000; stroke-width: 0.8"/>
      </g>
     </g>
     <g id="text_11">
      <!-- 0.4 -->
      <g transform="translate(29.257813 176.874918) scale(0.1 -0.1)">
       <use xlink:href="#DejaVuSans-30"/>
       <use xlink:href="#DejaVuSans-2e" transform="translate(63.623047 0)"/>
       <use xlink:href="#DejaVuSans-34" transform="translate(95.410156 0)"/>
      </g>
     </g>
    </g>
    <g id="ytick_5">
     <g id="line2d_12">
      <g>
       <use xlink:href="#m7c1b2f9f47" x="52.160938" y="136.496725" style="stroke: #000000; stroke-width: 0.8"/>
      </g>
     </g>
     <g id="text_12">
      <!-- 0.6 -->
      <g transform="translate(29.257813 140.295944) scale(0.1 -0.1)">
       <use xlink:href="#DejaVuSans-30"/>
       <use xlink:href="#DejaVuSans-2e" transform="translate(63.623047 0)"/>
       <use xlink:href="#DejaVuSans-36" transform="translate(95.410156 0)"/>
      </g>
     </g>
    </g>
    <g id="ytick_6">
     <g id="line2d_13">
      <g>
       <use xlink:href="#m7c1b2f9f47" x="52.160938" y="99.91775" style="stroke: #000000; stroke-width: 0.8"/>
      </g>
     </g>
     <g id="text_13">
      <!-- 0.8 -->
      <g transform="translate(29.257813 103.716969) scale(0.1 -0.1)">
       <use xlink:href="#DejaVuSans-30"/>
       <use xlink:href="#DejaVuSans-2e" transform="translate(63.623047 0)"/>
       <use xlink:href="#DejaVuSans-38" transform="translate(95.410156 0)"/>
      </g>
     </g>
    </g>
    <g id="ytick_7">
     <g id="line2d_14">
      <g>
       <use xlink:href="#m7c1b2f9f47" x="52.160938" y="63.338776" style="stroke: #000000; stroke-width: 0.8"/>
      </g>
     </g>
     <g id="text_14">
      <!-- 1.0 -->
      <g transform="translate(29.257813 67.137994) scale(0.1 -0.1)">
       <use xlink:href="#DejaVuSans-31"/>
       <use xlink:href="#DejaVuSans-2e" transform="translate(63.623047 0)"/>
       <use xlink:href="#DejaVuSans-30" transform="translate(95.410156 0)"/>
      </g>
     </g>
    </g>
    <g id="ytick_8">
     <g id="line2d_15">
      <g>
       <use xlink:href="#m7c1b2f9f47" x="52.160938" y="26.759801" style="stroke: #000000; stroke-width: 0.8"/>
      </g>
     </g>
     <g id="text_15">
      <!-- 1.2 -->
      <g transform="translate(29.257813 30.55902) scale(0.1 -0.1)">
       <use xlink:href="#DejaVuSans-31"/>
       <use xlink:href="#DejaVuSans-2e" transform="translate(63.623047 0)"/>
       <use xlink:href="#DejaVuSans-32" transform="translate(95.410156 0)"/>
      </g>
     </g>
    </g>
    <g id="text_16">
     <!-- Hip moment (N·m/kg) -->
     <g transform="translate(14.798438 222.980625) rotate(-90) scale(0.1 -0.1)">
      <defs>
       <path id="DejaVuSans-48" d="M 628 4666 
L 1259 4666 
L 1259 2753 
L 3553 2753 
L 3553 4666 
L 4184 4666 
L 4184 0 
L 3553 0 
L 3553 2222 
L 1259 2222 
L 1259 0 
L 628 0 
L 628 4666 
z
" transform="scale(0.015625)"/>
       <path id="DejaVuSans-70" d="M 1159 525 
L 1159 -1331 
L 581 -1331 
L 581 3500 
L 1159 3500 
L 1159 2969 
Q 1341 3281 1617 3432 
Q 1894 3584 2278 3584 
Q 2916 3584 3314 3078 
Q 3713 2572 3713 1747 
Q 3713 922 3314 415 
Q 2916 -91 2278 -91 
Q 1894 -91 1617 61 
Q 1341 213 1159 525 
z
M 3116 1747 
Q 3116 2381 2855 2742 
Q 2594 3103 2138 3103 
Q 1681 3103 1420 2742 
Q 1159 2381 1159 1747 
Q 1159 1113 1420 752 
Q 1681 391 2138 391 
Q 2594 391 2855 752 
Q 3116 1113 3116 1747 
z
" transform="scale(0.015625)"/>
       <path id="DejaVuSans-6d" d="M 3328 2828 
Q 3544 3216 3844 3400 
Q 4144 3584 4550 3584 
Q 5097 3584 5394 3201 
Q 5691 2819 5691 2113 
L 5691 0 
L 5113 0 
L 5113 2094 
Q 5113 2597 4934 2840 
Q 4756 3084 4391 3084 
Q 3944 3084 3684 2787 
Q 3425 2491 3425 1978 
L 3425 0 
L 2847 0 
L 2847 2094 
Q 2847 2600 2669 2842 
Q 2491 3084 2119 3084 
Q 1678 3084 1418 2786 
Q 1159 2488 1159 1978 
L 1159 0 
L 581 0 
L 581 3500 
L 1159 3500 
L 1159 2956 
Q 1356 3278 1631 3431 
Q 1906 3584 2284 3584 
Q 2666 3584 2933 3390 
Q 3200 3197 3328 2828 
z
" transform="scale(0.015625)"/>
       <path id="DejaVuSans-6f" d="M 1959 3097 
Q 1497 3097 1228 2736 
Q 959 2375 959 1747 
Q 959 1119 1226 758 
Q 1494 397 1959 397 
Q 2419 397 2687 759 
Q 2956 1122 2956 1747 
Q 2956 2369 2687 2733 
Q 2419 3097 1959 3097 
z
M 1959 3584 
Q 2709 3584 3137 3096 
Q 3566 2609 3566 1747 
Q 3566 888 3137 398 
Q 2709 -91 1959 -91 
Q 1206 -91 779 398 
Q 353 888 353 1747 
Q 353 2609 779 3096 
Q 1206 3584 1959 3584 
z
" transform="scale(0.015625)"/>
       <path id="DejaVuSans-6e" d="M 3513 2113 
L 3513 0 
L 2938 0 
L 2938 2094 
Q 2938 2591 2744 2837 
Q 2550 3084 2163 3084 
Q 1697 3084 1428 2787 
Q 1159 2491 1159 1978 
L 1159 0 
L 581 0 
L 581 3500 
L 1159 3500 
L 1159 2956 
Q 1366 3272 1645 3428 
Q 1925 3584 2291 3584 
Q 2894 3584 3203 3211 
Q 3513 2838 3513 2113 
z
" transform="scale(0.015625)"/>
       <path id="DejaVuSans-4e" d="M 628 4666 
L 1478 4666 
L 3547 763 
L 3547 4666 
L 4159 4666 
L 4159 0 
L 3309 0 
L 1241 3903 
L 1241 0 
L 628 0 
L 628 4666 
z
" transform="scale(0.015625)"/>
       <path id="DejaVuSans-b7" d="M 684 2619 
L 1344 2619 
L 1344 1825 
L 684 1825 
L 684 2619 
z
" transform="scale(0.015625)"/>
       <path id="DejaVuSans-2f" d="M 1625 4666 
L 2156 4666 
L 531 -594 
L 0 -594 
L 1625 4666 
z
" transform="scale(0.015625)"/>
       <path id="DejaVuSans-6b" d="M 581 4863 
L 1159 4863 
L 1159 1991 
L 2875 3500 
L 3609 3500 
L 1753 1863 
L 3688 0 
L 2938 0 
L 1159 1709 
L 1159 0 
L 581 0 
L 581 4863 
z
" transform="scale(0.015625)"/>
       <path id="DejaVuSans-67" d="M 2906 1791 
Q 2906 2416 2648 2759 
Q 2391 3103 1925 3103 
Q 1463 3103 1205 2759 
Q 947 2416 947 1791 
Q 947 1169 1205 825 
Q 1463 481 1925 481 
Q 2391 481 2648 825 
Q 2906 1169 2906 1791 
z
M 3481 434 
Q 3481 -459 3084 -895 
Q 2688 -1331 1869 -1331 
Q 1566 -1331 1297 -1286 
Q 1028 -1241 775 -1147 
L 775 -588 
Q 1028 -725 1275 -790 
Q 1522 -856 1778 -856 
Q 2344 -856 2625 -561 
Q 2906 -266 2906 331 
L 2906 616 
Q 2728 306 2450 153 
Q 2172 0 1784 0 
Q 1141 0 747 490 
Q 353 981 353 1791 
Q 353 2603 747 3093 
Q 1141 3584 1784 3584 
Q 2172 3584 2450 3431 
Q 2728 3278 2906 2969 
L 2906 3500 
L 3481 3500 
L 3481 434 
z
" transform="scale(0.015625)"/>
      </defs>
      <use xlink:href="#DejaVuSans-48"/>
      <use xlink:href="#DejaVuSans-69" transform="translate(75.195312 0)"/>
      <use xlink:href="#DejaVuSans-70" transform="translate(102.978516 0)"/>
      <use xlink:href="#DejaVuSans-20" transform="translate(166.455078 0)"/>
      <use xlink:href="#DejaVuSans-6d" transform="translate(198.242188 0)"/>
      <use xlink:href="#DejaVuSans-6f" transform="translate(295.654297 0)"/>
      <use xlink:href="#DejaVuSans-6d" transform="translate(356.835938 0)"/>
      <use xlink:href="#DejaVuSans-65" transform="translate(454.248047 0)"/>
      <use xlink:href="#DejaVuSans-6e" transform="translate(515.771484 0)"/>
      <use xlink:href="#DejaVuSans-74" transform="translate(579.150391 0)"/>
      <use xlink:href="#DejaVuSans-20" transform="translate(618.359375 0)"/>
      <use xlink:href="#DejaVuSans-28" transform="translate(650.146484 0)"/>
      <use xlink:href="#DejaVuSans-4e" transform="translate(689.160156 0)"/>
      <use xlink:href="#DejaVuSans-b7" transform="translate(763.964844 0)"/>
      <use xlink:href="#DejaVuSans-6d" transform="translate(795.751953 0)"/>
      <use xlink:href="#DejaVuSans-2f" transform="translate(893.164062 0)"/>
      <use xlink:href="#DejaVuSans-6b" transform="translate(926.855469 0)"/>
      <use xlink:href="#DejaVuSans-67" transform="translate(984.765625 0)"/>
      <use xlink:href="#DejaVuSans-29" transform="translate(1048.242188 0)"/>
     </g>
    </g>
   </g>
   <g id="patch_3">
    <path d="M 52.160938 314.918125 
L 52.160938 22.318125 
" style="fill: none; stroke: #000000; stroke-width: 0.8; stroke-linejoin: miter; stroke-linecap: square"/>
   </g>
   <g id="patch_4">
    <path d="M 479.595937 314.918125 
L 479.595937 22.318125 
" style="fill: none; stroke: #000000; stroke-width: 0.8; stroke-linejoin: miter; stroke-linecap: square"/>
   </g>
   <g id="patch_5">
    <path d="M 52.160938 314.918125 
L 479.595937 314.918125 
" style="fill: none; stroke: #000000; stroke-width: 0.8; stroke-linejoin: miter; stroke-linecap: square"/>
   </g>
   <g id="patch_6">
    <path d="M 52.160938 22.318125 
L 479.595937 22.318125 
" style="fill: none; stroke: #000000; stroke-width: 0.8; stroke-linejoin: miter; stroke-linecap: square"/>
   </g>
   <g id="text_17">
    <!-- RD_0p8mps — GT vs Model (n=7 subjects) -->
    <g transform="translate(137.433438 16.318125) scale(0.12 -0.12)">
     <defs>
      <path id="DejaVuSans-52" d="M 2841 2188 
Q 3044 2119 3236 1894 
Q 3428 1669 3622 1275 
L 4263 0 
L 3584 0 
L 2988 1197 
Q 2756 1666 2539 1819 
Q 2322 1972 1947 1972 
L 1259 1972 
L 1259 0 
L 628 0 
L 628 4666 
L 2053 4666 
Q 2853 4666 3247 4331 
Q 3641 3997 3641 3322 
Q 3641 2881 3436 2590 
Q 3231 2300 2841 2188 
z
M 1259 4147 
L 1259 2491 
L 2053 2491 
Q 2509 2491 2742 2702 
Q 2975 2913 2975 3322 
Q 2975 3731 2742 3939 
Q 2509 4147 2053 4147 
L 1259 4147 
z
" transform="scale(0.015625)"/>
      <path id="DejaVuSans-44" d="M 1259 4147 
L 1259 519 
L 2022 519 
Q 2988 519 3436 956 
Q 3884 1394 3884 2338 
Q 3884 3275 3436 3711 
Q 2988 4147 2022 4147 
L 1259 4147 
z
M 628 4666 
L 1925 4666 
Q 3281 4666 3915 4102 
Q 4550 3538 4550 2338 
Q 4550 1131 3912 565 
Q 3275 0 1925 0 
L 628 0 
L 628 4666 
z
" transform="scale(0.015625)"/>
      <path id="DejaVuSans-5f" d="M 3263 -1063 
L 3263 -1509 
L -63 -1509 
L -63 -1063 
L 3263 -1063 
z
" transform="scale(0.015625)"/>
      <path id="DejaVuSans-73" d="M 2834 3397 
L 2834 2853 
Q 2591 2978 2328 3040 
Q 2066 3103 1784 3103 
Q 1356 3103 1142 2972 
Q 928 2841 928 2578 
Q 928 2378 1081 2264 
Q 1234 2150 1697 2047 
L 1894 2003 
Q 2506 1872 2764 1633 
Q 3022 1394 3022 966 
Q 3022 478 2636 193 
Q 2250 -91 1575 -91 
Q 1294 -91 989 -36 
Q 684 19 347 128 
L 347 722 
Q 666 556 975 473 
Q 1284 391 1588 391 
Q 1994 391 2212 530 
Q 2431 669 2431 922 
Q 2431 1156 2273 1281 
Q 2116 1406 1581 1522 
L 1381 1569 
Q 847 1681 609 1914 
Q 372 2147 372 2553 
Q 372 3047 722 3315 
Q 1072 3584 1716 3584 
Q 2034 3584 2315 3537 
Q 2597 3491 2834 3397 
z
" transform="scale(0.015625)"/>
      <path id="DejaVuSans-2014" d="M 313 1978 
L 6088 1978 
L 6088 1528 
L 313 1528 
L 313 1978 
z
" transform="scale(0.015625)"/>
      <path id="DejaVuSans-54" d="M -19 4666 
L 3928 4666 
L 3928 4134 
L 2272 4134 
L 2272 0 
L 1638 0 
L 1638 4134 
L -19 4134 
L -19 4666 
z
" transform="scale(0.015625)"/>
      <path id="DejaVuSans-76" d="M 191 3500 
L 800 3500 
L 1894 563 
L 2988 3500 
L 3597 3500 
L 2284 0 
L 1503 0 
L 191 3500 
z
" transform="scale(0.015625)"/>
      <path id="DejaVuSans-4d" d="M 628 4666 
L 1569 4666 
L 2759 1491 
L 3956 4666 
L 4897 4666 
L 4897 0 
L 4281 0 
L 4281 4097 
L 3078 897 
L 2444 897 
L 1241 4097 
L 1241 0 
L 628 0 
L 628 4666 
z
" transform="scale(0.015625)"/>
      <path id="DejaVuSans-64" d="M 2906 2969 
L 2906 4863 
L 3481 4863 
L 3481 0 
L 2906 0 
L 2906 525 
Q 2725 213 2448 61 
Q 2172 -91 1784 -91 
Q 1150 -91 751 415 
Q 353 922 353 1747 
Q 353 2572 751 3078 
Q 1150 3584 1784 3584 
Q 2172 3584 2448 3432 
Q 2725 3281 2906 2969 
z
M 947 1747 
Q 947 1113 1208 752 
Q 1469 391 1925 391 
Q 2381 391 2643 752 
Q 2906 1113 2906 1747 
Q 2906 2381 2643 2742 
Q 2381 3103 1925 3103 
Q 1469 3103 1208 2742 
Q 947 2381 947 1747 
z
" transform="scale(0.015625)"/>
      <path id="DejaVuSans-3d" d="M 678 2906 
L 4684 2906 
L 4684 2381 
L 678 2381 
L 678 2906 
z
M 678 1631 
L 4684 1631 
L 4684 1100 
L 678 1100 
L 678 1631 
z
" transform="scale(0.015625)"/>
      <path id="DejaVuSans-37" d="M 525 4666 
L 3525 4666 
L 3525 4397 
L 1831 0 
L 1172 0 
L 2766 4134 
L 525 4134 
L 525 4666 
z
" transform="scale(0.015625)"/>
      <path id="DejaVuSans-75" d="M 544 1381 
L 544 3500 
L 1119 3500 
L 1119 1403 
Q 1119 906 1312 657 
Q 1506 409 1894 409 
Q 2359 409 2629 706 
Q 2900 1003 2900 1516 
L 2900 3500 
L 3475 3500 
L 3475 0 
L 2900 0 
L 2900 538 
Q 2691 219 2414 64 
Q 2138 -91 1772 -91 
Q 1169 -91 856 284 
Q 544 659 544 1381 
z
M 1991 3584 
L 1991 3584 
z
" transform="scale(0.015625)"/>
      <path id="DejaVuSans-62" d="M 3116 1747 
Q 3116 2381 2855 2742 
Q 2594 3103 2138 3103 
Q 1681 3103 1420 2742 
Q 1159 2381 1159 1747 
Q 1159 1113 1420 752 
Q 1681 391 2138 391 
Q 2594 391 2855 752 
Q 3116 1113 3116 1747 
z
M 1159 2969 
Q 1341 3281 1617 3432 
Q 1894 3584 2278 3584 
Q 2916 3584 3314 3078 
Q 3713 2572 3713 1747 
Q 3713 922 3314 415 
Q 2916 -91 2278 -91 
Q 1894 -91 1617 61 
Q 1341 213 1159 525 
L 1159 0 
L 581 0 
L 581 4863 
L 1159 4863 
L 1159 2969 
z
" transform="scale(0.015625)"/>
      <path id="DejaVuSans-6a" d="M 603 3500 
L 1178 3500 
L 1178 -63 
Q 1178 -731 923 -1031 
Q 669 -1331 103 -1331 
L -116 -1331 
L -116 -844 
L 38 -844 
Q 366 -844 484 -692 
Q 603 -541 603 -63 
L 603 3500 
z
M 603 4863 
L 1178 4863 
L 1178 4134 
L 603 4134 
L 603 4863 
z
" transform="scale(0.015625)"/>
     </defs>
     <use xlink:href="#DejaVuSans-52"/>
     <use xlink:href="#DejaVuSans-44" transform="translate(69.482422 0)"/>
     <use xlink:href="#DejaVuSans-5f" transform="translate(146.484375 0)"/>
     <use xlink:href="#DejaVuSans-30" transform="translate(196.484375 0)"/>
     <use xlink:href="#DejaVuSans-70" transform="translate(260.107422 0)"/>
     <use xlink:href="#DejaVuSans-38" transform="translate(323.583984 0)"/>
     <use xlink:href="#DejaVuSans-6d" transform="translate(387.207031 0)"/>
     <use xlink:href="#DejaVuSans-70" transform="translate(484.619141 0)"/>
     <use xlink:href="#DejaVuSans-73" transform="translate(548.095703 0)"/>
     <use xlink:href="#DejaVuSans-20" transform="translate(600.195312 0)"/>
     <use xlink:href="#DejaVuSans-2014" transform="translate(631.982422 0)"/>
     <use xlink:href="#DejaVuSans-20" transform="translate(731.982422 0)"/>
     <use xlink:href="#DejaVuSans-47" transform="translate(763.769531 0)"/>
     <use xlink:href="#DejaVuSans-54" transform="translate(837.634766 0)"/>
     <use xlink:href="#DejaVuSans-20" transform="translate(898.71875 0)"/>
     <use xlink:href="#DejaVuSans-76" transform="translate(930.505859 0)"/>
     <use xlink:href="#DejaVuSans-73" transform="translate(989.685547 0)"/>
     <use xlink:href="#DejaVuSans-20" transform="translate(1041.785156 0)"/>
     <use xlink:href="#DejaVuSans-4d" transform="translate(1073.572266 0)"/>
     <use xlink:href="#DejaVuSans-6f" transform="translate(1159.851562 0)"/>
     <use xlink:href="#DejaVuSans-64" transform="translate(1221.033203 0)"/>
     <use xlink:href="#DejaVuSans-65" transform="translate(1284.509766 0)"/>
     <use xlink:href="#DejaVuSans-6c" transform="translate(1346.033203 0)"/>
     <use xlink:href="#DejaVuSans-20" transform="translate(1373.816406 0)"/>
     <use xlink:href="#DejaVuSans-28" transform="translate(1405.603516 0)"/>
     <use xlink:href="#DejaVuSans-6e" transform="translate(1444.617188 0)"/>
     <use xlink:href="#DejaVuSans-3d" transform="translate(1507.996094 0)"/>
     <use xlink:href="#DejaVuSans-37" transform="translate(1591.785156 0)"/>
     <use xlink:href="#DejaVuSans-20" transform="translate(1655.408203 0)"/>
     <use xlink:href="#DejaVuSans-73" transform="translate(1687.195312 0)"/>
     <use xlink:href="#DejaVuSans-75" transform="translate(1739.294922 0)"/>
     <use xlink:href="#DejaVuSans-62" transform="translate(1802.673828 0)"/>
     <use xlink:href="#DejaVuSans-6a" transform="translate(1866.150391 0)"/>
     <use xlink:href="#DejaVuSans-65" transform="translate(1893.933594 0)"/>
     <use xlink:href="#DejaVuSans-63" transform="translate(1955.457031 0)"/>
     <use xlink:href="#DejaVuSans-74" transform="translate(2010.4375 0)"/>
     <use xlink:href="#DejaVuSans-73" transform="translate(2049.646484 0)"/>
     <use xlink:href="#DejaVuSans-29" transform="translate(2101.746094 0)"/>
    </g>
   </g>
   <g id="FillBetweenPolyCollection_1">
    <defs>
     <path id="mae1b33120b" d="M 52.160938 -114.007618 
L 52.160938 -62.261197 
L 56.435288 -66.337111 
L 60.709638 -72.074395 
L 64.983988 -79.809198 
L 69.258338 -89.670683 
L 73.532688 -101.726521 
L 77.807038 -115.817246 
L 82.081388 -131.404958 
L 86.355738 -147.888926 
L 90.630088 -164.521221 
L 94.904438 -180.400169 
L 99.178788 -194.776871 
L 103.453138 -206.972978 
L 107.727488 -216.492333 
L 112.001838 -222.997343 
L 116.276188 -226.397451 
L 120.550538 -226.743816 
L 124.824888 -224.165029 
L 129.099238 -218.847218 
L 133.373588 -211.017966 
L 137.647938 -201.140275 
L 141.922288 -189.959573 
L 146.196638 -178.351795 
L 150.470988 -167.026144 
L 154.745338 -156.459811 
L 159.019688 -146.915114 
L 163.294038 -138.538964 
L 167.568388 -131.387309 
L 171.842738 -125.469853 
L 176.117088 -120.748268 
L 180.391438 -117.174737 
L 184.665788 -114.702212 
L 188.940138 -113.271331 
L 193.214488 -112.824546 
L 197.488838 -113.32087 
L 201.763188 -114.714434 
L 206.037538 -116.977812 
L 210.311888 -120.082431 
L 214.586238 -123.997308 
L 218.860588 -128.677793 
L 223.134938 -134.062335 
L 227.409288 -140.066525 
L 231.683638 -146.558368 
L 235.957988 -153.35322 
L 240.232338 -160.216408 
L 244.506688 -166.861519 
L 248.781038 -172.952749 
L 253.055388 -178.144319 
L 257.329738 -182.089319 
L 261.604087 -184.523423 
L 265.878438 -185.270497 
L 270.152787 -184.192334 
L 274.427138 -181.445994 
L 278.701487 -177.24567 
L 282.975838 -171.925089 
L 287.250187 -165.926153 
L 291.524538 -159.675345 
L 295.798888 -153.52581 
L 300.073238 -147.699766 
L 304.347588 -142.273938 
L 308.621938 -137.212407 
L 312.896287 -132.423567 
L 317.170637 -127.844786 
L 321.444987 -123.451852 
L 325.719337 -119.24154 
L 329.993688 -115.20228 
L 334.268037 -111.324573 
L 338.542388 -107.615235 
L 342.816737 -104.085299 
L 347.091088 -100.750137 
L 351.365437 -97.640866 
L 355.639788 -94.791964 
L 359.914137 -92.234345 
L 364.188488 -89.9927 
L 368.462837 -88.074469 
L 372.737188 -86.461132 
L 377.011537 -85.10759 
L 381.285888 -83.940507 
L 385.560237 -82.86248 
L 389.834587 -81.754798 
L 394.108937 -80.493042 
L 398.383287 -78.952315 
L 402.657638 -77.038464 
L 406.931987 -74.691407 
L 411.206338 -71.913064 
L 415.480687 -68.768516 
L 419.755038 -65.389181 
L 424.029387 -61.9602 
L 428.303738 -58.697778 
L 432.578087 -55.816622 
L 436.852438 -53.505758 
L 441.126787 -51.893754 
L 445.401138 -51.028173 
L 449.675487 -50.85625 
L 453.949838 -51.26606 
L 458.224187 -52.10632 
L 462.498537 -53.213024 
L 466.772888 -54.468406 
L 471.047237 -55.846989 
L 475.321588 -57.446344 
L 479.595937 -59.488128 
L 479.595937 -109.50519 
L 479.595937 -109.50519 
L 475.321588 -106.391769 
L 471.047237 -104.827713 
L 466.772888 -104.069504 
L 462.498537 -103.604086 
L 458.224187 -103.154478 
L 453.949838 -102.709384 
L 449.675487 -102.415463 
L 445.401138 -102.475091 
L 441.126787 -103.05451 
L 436.852438 -104.220254 
L 432.578087 -105.957102 
L 428.303738 -108.159175 
L 424.029387 -110.655493 
L 419.755038 -113.268686 
L 415.480687 -115.8421 
L 411.206338 -118.261596 
L 406.931987 -120.461595 
L 402.657638 -122.428136 
L 398.383287 -124.17968 
L 394.108937 -125.762982 
L 389.834587 -127.232541 
L 385.560237 -128.644599 
L 381.285888 -130.049207 
L 377.011537 -131.489062 
L 372.737188 -132.997668 
L 368.462837 -134.604058 
L 364.188488 -136.338697 
L 359.914137 -138.234481 
L 355.639788 -140.316746 
L 351.365437 -142.599851 
L 347.091088 -145.074363 
L 342.816737 -147.693673 
L 338.542388 -150.391783 
L 334.268037 -153.091528 
L 329.993688 -155.747401 
L 325.719337 -158.387462 
L 321.444987 -161.159297 
L 317.170637 -164.338438 
L 312.896287 -168.290176 
L 308.621938 -173.372629 
L 304.347588 -179.853852 
L 300.073238 -187.746089 
L 295.798888 -196.849336 
L 291.524538 -206.799669 
L 287.250187 -217.122904 
L 282.975838 -227.289312 
L 278.701487 -236.786805 
L 274.427138 -245.1753 
L 270.152787 -252.049745 
L 265.878438 -257.223636 
L 261.604087 -260.475859 
L 257.329738 -261.878153 
L 253.055388 -261.435781 
L 248.781038 -259.379176 
L 244.506688 -255.953487 
L 240.232338 -251.437722 
L 235.957988 -246.123774 
L 231.683638 -240.309084 
L 227.409288 -234.262171 
L 223.134938 -228.203826 
L 218.860588 -222.332957 
L 214.586238 -216.801438 
L 210.311888 -211.743032 
L 206.037538 -207.261123 
L 201.763188 -203.435325 
L 197.488838 -200.317768 
L 193.214488 -197.947274 
L 188.940138 -196.350846 
L 184.665788 -195.545126 
L 180.391438 -195.524648 
L 176.117088 -196.295618 
L 171.842738 -197.862739 
L 167.568388 -200.246334 
L 163.294038 -203.458004 
L 159.019688 -207.531845 
L 154.745338 -212.510017 
L 150.470988 -218.45007 
L 146.196638 -225.413893 
L 141.922288 -233.548625 
L 137.647938 -243.03436 
L 133.373588 -254.03192 
L 129.099238 -266.341869 
L 124.824888 -279.297169 
L 120.550538 -291.882671 
L 116.276188 -302.976563 
L 112.001838 -311.474073 
L 107.727488 -316.368652 
L 103.453138 -316.85625 
L 99.178788 -312.310604 
L 94.904438 -302.502188 
L 90.630088 -287.647108 
L 86.355738 -268.456783 
L 82.081388 -245.86017 
L 77.807038 -221.306175 
L 73.532688 -196.539805 
L 69.258338 -173.109849 
L 64.983988 -152.526864 
L 60.709638 -135.716731 
L 56.435288 -122.920821 
L 52.160938 -114.007618 
z
" style="stroke: #1f77b4; stroke-opacity: 0.25"/>
    </defs>
    <g clip-path="url(#pc1fdf48e63)">
     <use xlink:href="#mae1b33120b" x="0" y="352.474375" style="fill: #1f77b4; fill-opacity: 0.25; stroke: #1f77b4; stroke-opacity: 0.25"/>
    </g>
   </g>
   <g id="legend_1">
    <g id="patch_7">
     <path d="M 379.031875 89.030625 
L 472.595937 89.030625 
Q 474.595937 89.030625 474.595937 87.030625 
L 474.595937 29.318125 
Q 474.595937 27.318125 472.595937 27.318125 
L 379.031875 27.318125 
Q 377.031875 27.318125 377.031875 29.318125 
L 377.031875 87.030625 
Q 377.031875 89.030625 379.031875 89.030625 
z
" style="fill: #ffffff; opacity: 0.95; stroke: #cccccc; stroke-linejoin: miter"/>
    </g>
    <g id="patch_8">
     <path d="M 381.031875 38.916562 
L 401.031875 38.916562 
L 401.031875 31.916562 
L 381.031875 31.916562 
z
" style="fill: #1f77b4; fill-opacity: 0.25; stroke: #1f77b4; stroke-opacity: 0.25; stroke-linejoin: miter"/>
    </g>
    <g id="text_18">
     <!-- GT ± std -->
     <g transform="translate(409.031875 38.916562) scale(0.1 -0.1)">
      <defs>
       <path id="DejaVuSans-b1" d="M 2944 4013 
L 2944 2803 
L 4684 2803 
L 4684 2272 
L 2944 2272 
L 2944 1063 
L 2419 1063 
L 2419 2272 
L 678 2272 
L 678 2803 
L 2419 2803 
L 2419 4013 
L 2944 4013 
z
M 678 531 
L 4684 531 
L 4684 0 
L 678 0 
L 678 531 
z
" transform="scale(0.015625)"/>
      </defs>
      <use xlink:href="#DejaVuSans-47"/>
      <use xlink:href="#DejaVuSans-54" transform="translate(73.865234 0)"/>
      <use xlink:href="#DejaVuSans-20" transform="translate(134.949219 0)"/>
      <use xlink:href="#DejaVuSans-b1" transform="translate(166.736328 0)"/>
      <use xlink:href="#DejaVuSans-20" transform="translate(250.525391 0)"/>
      <use xlink:href="#DejaVuSans-73" transform="translate(282.3125 0)"/>
      <use xlink:href="#DejaVuSans-74" transform="translate(334.412109 0)"/>
      <use xlink:href="#DejaVuSans-64" transform="translate(373.621094 0)"/>
     </g>
    </g>
    <g id="line2d_16">
     <path d="M 381.031875 50.094688 
L 391.031875 50.094688 
L 401.031875 50.094688 
" style="fill: none; stroke: #1f77b4; stroke-width: 2.5; stroke-linecap: round"/>
    </g>
    <g id="text_19">
     <!-- GT mean -->
     <g transform="translate(409.031875 53.594688) scale(0.1 -0.1)">
      <use xlink:href="#DejaVuSans-47"/>
      <use xlink:href="#DejaVuSans-54" transform="translate(73.865234 0)"/>
      <use xlink:href="#DejaVuSans-20" transform="translate(134.949219 0)"/>
      <use xlink:href="#DejaVuSans-6d" transform="translate(166.736328 0)"/>
      <use xlink:href="#DejaVuSans-65" transform="translate(264.148438 0)"/>
      <use xlink:href="#DejaVuSans-61" transform="translate(325.671875 0)"/>
      <use xlink:href="#DejaVuSans-6e" transform="translate(386.951172 0)"/>
     </g>
    </g>
    <g id="patch_9">
     <path d="M 381.031875 68.272812 
L 401.031875 68.272812 
L 401.031875 61.272812 
L 381.031875 61.272812 
z
" style="fill: #d62728; fill-opacity: 0.25; stroke: #d62728; stroke-opacity: 0.25; stroke-linejoin: miter"/>
    </g>
    <g id="text_20">
     <!-- Model ± std -->
     <g transform="translate(409.031875 68.272812) scale(0.1 -0.1)">
      <use xlink:href="#DejaVuSans-4d"/>
      <use xlink:href="#DejaVuSans-6f" transform="translate(86.279297 0)"/>
      <use xlink:href="#DejaVuSans-64" transform="translate(147.460938 0)"/>
      <use xlink:href="#DejaVuSans-65" transform="translate(210.9375 0)"/>
      <use xlink:href="#DejaVuSans-6c" transform="translate(272.460938 0)"/>
      <use xlink:href="#DejaVuSans-20" transform="translate(300.244141 0)"/>
      <use xlink:href="#DejaVuSans-b1" transform="translate(332.03125 0)"/>
      <use xlink:href="#DejaVuSans-20" transform="translate(415.820312 0)"/>
      <use xlink:href="#DejaVuSans-73" transform="translate(447.607422 0)"/>
      <use xlink:href="#DejaVuSans-74" transform="translate(499.707031 0)"/>
      <use xlink:href="#DejaVuSans-64" transform="translate(538.916016 0)"/>
     </g>
    </g>
    <g id="line2d_17">
     <path d="M 381.031875 79.450938 
L 391.031875 79.450938 
L 401.031875 79.450938 
" style="fill: none; stroke-dasharray: 9.25,4; stroke-dashoffset: 0; stroke: #d62728; stroke-width: 2.5"/>
    </g>
    <g id="text_21">
     <!-- Model mean -->
     <g transform="translate(409.031875 82.950938) scale(0.1 -0.1)">
      <use xlink:href="#DejaVuSans-4d"/>
      <use xlink:href="#DejaVuSans-6f" transform="translate(86.279297 0)"/>
      <use xlink:href="#DejaVuSans-64" transform="translate(147.460938 0)"/>
      <use xlink:href="#DejaVuSans-65" transform="translate(210.9375 0)"/>
      <use xlink:href="#DejaVuSans-6c" transform="translate(272.460938 0)"/>
      <use xlink:href="#DejaVuSans-20" transform="translate(300.244141 0)"/>
      <use xlink:href="#DejaVuSans-6d" transform="translate(332.03125 0)"/>
      <use xlink:href="#DejaVuSans-65" transform="translate(429.443359 0)"/>
      <use xlink:href="#DejaVuSans-61" transform="translate(490.966797 0)"/>
      <use xlink:href="#DejaVuSans-6e" transform="translate(552.246094 0)"/>
     </g>
    </g>
   </g>
   <g id="FillBetweenPolyCollection_2">
    <defs>
     <path id="m5057dab4be" d="M 52.160938 -146.158986 
L 52.160938 -83.135212 
L 56.435288 -89.410615 
L 60.709638 -96.815347 
L 64.983988 -105.117017 
L 69.258338 -113.999044 
L 73.532688 -123.217515 
L 77.807038 -132.74389 
L 82.081388 -142.609641 
L 86.355738 -152.808946 
L 90.630088 -163.05595 
L 94.904438 -172.550582 
L 99.178788 -179.828874 
L 103.453138 -183.04123 
L 107.727488 -181.494128 
L 112.001838 -176.695722 
L 116.276188 -170.919678 
L 120.550538 -165.844663 
L 124.824888 -162.320983 
L 129.099238 -160.396461 
L 133.373588 -159.632937 
L 137.647938 -159.315672 
L 141.922288 -158.744663 
L 146.196638 -157.379555 
L 150.470988 -154.956038 
L 154.745338 -151.515458 
L 159.019688 -147.328765 
L 163.294038 -142.828931 
L 167.568388 -138.421394 
L 171.842738 -134.41898 
L 176.117088 -131.033527 
L 180.391438 -128.356772 
L 184.665788 -126.425791 
L 188.940138 -125.242243 
L 193.214488 -124.793516 
L 197.488838 -125.058568 
L 201.763188 -126.006526 
L 206.037538 -127.619341 
L 210.311888 -129.880309 
L 214.586238 -132.773806 
L 218.860588 -136.294086 
L 223.134938 -140.428442 
L 227.409288 -145.163166 
L 231.683638 -150.45816 
L 235.957988 -156.240582 
L 240.232338 -162.415217 
L 244.506688 -168.840486 
L 248.781038 -175.329441 
L 253.055388 -181.645062 
L 257.329738 -187.483504 
L 261.604087 -192.492848 
L 265.878438 -196.270782 
L 270.152787 -198.302788 
L 274.427138 -198.169335 
L 278.701487 -195.536973 
L 282.975838 -190.422114 
L 287.250187 -183.341783 
L 291.524538 -175.168334 
L 295.798888 -166.874053 
L 300.073238 -159.239113 
L 304.347588 -152.741148 
L 308.621938 -147.544161 
L 312.896287 -143.504654 
L 317.170637 -140.295445 
L 321.444987 -137.571732 
L 325.719337 -135.053857 
L 329.993688 -132.527977 
L 334.268037 -129.804098 
L 338.542388 -126.782254 
L 342.816737 -123.431348 
L 347.091088 -119.771518 
L 351.365437 -115.884336 
L 355.639788 -111.873564 
L 359.914137 -107.857068 
L 364.188488 -103.932039 
L 368.462837 -100.178456 
L 372.737188 -96.651565 
L 377.011537 -93.364342 
L 381.285888 -90.330213 
L 385.560237 -87.554095 
L 389.834587 -85.029245 
L 394.108937 -82.740645 
L 398.383287 -80.669924 
L 402.657638 -78.770102 
L 406.931987 -76.984546 
L 411.206338 -75.254073 
L 415.480687 -73.544216 
L 419.755038 -71.853038 
L 424.029387 -70.246055 
L 428.303738 -68.852966 
L 432.578087 -67.833494 
L 436.852438 -67.353079 
L 441.126787 -67.441704 
L 445.401138 -67.893505 
L 449.675487 -68.410885 
L 453.949838 -68.792554 
L 458.224187 -69.109182 
L 462.498537 -69.604446 
L 466.772888 -70.537904 
L 471.047237 -72.192429 
L 475.321588 -74.807097 
L 479.595937 -78.567475 
L 479.595937 -141.624244 
L 479.595937 -141.624244 
L 475.321588 -134.658963 
L 471.047237 -126.549718 
L 466.772888 -117.660104 
L 462.498537 -108.576243 
L 458.224187 -100.112741 
L 453.949838 -92.981677 
L 449.675487 -87.772915 
L 445.401138 -84.794957 
L 441.126787 -83.839056 
L 436.852438 -84.453053 
L 432.578087 -86.220356 
L 428.303738 -88.913925 
L 424.029387 -92.430967 
L 419.755038 -96.752656 
L 415.480687 -101.900525 
L 411.206338 -107.916018 
L 406.931987 -114.844689 
L 402.657638 -122.705882 
L 398.383287 -131.495103 
L 394.108937 -141.155859 
L 389.834587 -151.563944 
L 385.560237 -162.504917 
L 381.285888 -173.673829 
L 377.011537 -184.694822 
L 372.737188 -195.141107 
L 368.462837 -204.581873 
L 364.188488 -212.618587 
L 359.914137 -218.931415 
L 355.639788 -223.323042 
L 351.365437 -225.743901 
L 347.091088 -226.277456 
L 342.816737 -225.167042 
L 338.542388 -222.801001 
L 334.268037 -219.709944 
L 329.993688 -216.481995 
L 325.719337 -213.720743 
L 321.444987 -212.019776 
L 317.170637 -211.853199 
L 312.896287 -213.458886 
L 308.621938 -216.801159 
L 304.347588 -221.579718 
L 300.073238 -227.306912 
L 295.798888 -233.473648 
L 291.524538 -239.664576 
L 287.250187 -245.649545 
L 282.975838 -251.364318 
L 278.701487 -256.804205 
L 274.427138 -261.82684 
L 270.152787 -266.077329 
L 265.878438 -269.207396 
L 261.604087 -270.818914 
L 257.329738 -270.879953 
L 253.055388 -269.330383 
L 248.781038 -266.380497 
L 244.506688 -262.243589 
L 240.232338 -257.142153 
L 235.957988 -251.29584 
L 231.683638 -244.918058 
L 227.409288 -238.197954 
L 223.134938 -231.294502 
L 218.860588 -224.369369 
L 214.586238 -217.573743 
L 210.311888 -211.063307 
L 206.037538 -204.971524 
L 201.763188 -199.429629 
L 197.488838 -194.56819 
L 193.214488 -190.505549 
L 188.940138 -187.359741 
L 184.665788 -185.247343 
L 180.391438 -184.237386 
L 176.117088 -184.361481 
L 171.842738 -185.581828 
L 167.568388 -187.806871 
L 163.294038 -190.907084 
L 159.019688 -194.745202 
L 154.745338 -199.19968 
L 150.470988 -204.174351 
L 146.196638 -209.536429 
L 141.922288 -215.11369 
L 137.647938 -220.683039 
L 133.373588 -225.926912 
L 129.099238 -230.464057 
L 124.824888 -233.826865 
L 120.550538 -235.578283 
L 116.276188 -235.409398 
L 112.001838 -233.392028 
L 107.727488 -230.169757 
L 103.453138 -226.905755 
L 99.178788 -224.220888 
L 94.904438 -221.016742 
L 90.630088 -215.729712 
L 86.355738 -207.812322 
L 82.081388 -197.81876 
L 77.807038 -187.018816 
L 73.532688 -176.776231 
L 69.258338 -168.054669 
L 64.983988 -161.240244 
L 60.709638 -155.858389 
L 56.435288 -151.098023 
L 52.160938 -146.158986 
z
" style="stroke: #d62728; stroke-opacity: 0.25"/>
    </defs>
    <g clip-path="url(#pc1fdf48e63)">
     <use xlink:href="#m5057dab4be" x="0" y="352.474375" style="fill: #d62728; fill-opacity: 0.25; stroke: #d62728; stroke-opacity: 0.25"/>
    </g>
   </g>
   <g id="line2d_18">
    <path d="M 52.160938 264.339967 
L 56.435288 257.845409 
L 60.709638 248.578812 
L 64.983988 236.306344 
L 69.258338 221.084109 
L 73.532688 203.341212 
L 77.807038 183.912665 
L 82.081388 163.841811 
L 86.355738 144.301521 
L 90.630088 126.390211 
L 94.904438 111.023196 
L 99.178788 98.930637 
L 103.453138 90.559761 
L 107.727488 86.043882 
L 112.001838 85.238667 
L 116.276188 87.787368 
L 120.550538 93.161131 
L 124.824888 100.743276 
L 129.099238 109.879832 
L 133.373588 119.949432 
L 137.647938 130.387057 
L 141.922288 140.720276 
L 146.196638 150.591531 
L 150.470988 159.736268 
L 154.745338 167.989461 
L 159.019688 175.250895 
L 163.294038 181.475891 
L 167.568388 186.657553 
L 171.842738 190.808079 
L 176.117088 193.952432 
L 180.391438 196.124682 
L 184.665788 197.350706 
L 188.940138 197.663287 
L 193.214488 197.088465 
L 197.488838 195.655056 
L 201.763188 193.399496 
L 206.037538 190.354907 
L 210.311888 186.561643 
L 214.586238 182.075002 
L 218.860588 176.969 
L 223.134938 171.341294 
L 227.409288 165.310027 
L 231.683638 159.040649 
L 235.957988 152.735878 
L 240.232338 146.64731 
L 244.506688 141.066872 
L 248.781038 136.308412 
L 253.055388 132.684325 
L 257.329738 130.490639 
L 261.604087 129.974734 
L 265.878438 131.227308 
L 270.152787 134.353335 
L 274.427138 139.163728 
L 278.701487 145.458138 
L 282.975838 152.867174 
L 287.250187 160.949847 
L 291.524538 169.236868 
L 295.798888 177.286802 
L 300.073238 184.751448 
L 304.347588 191.41048 
L 308.621938 197.181857 
L 312.896287 202.117504 
L 317.170637 206.382763 
L 321.444987 210.1688 
L 325.719337 213.659874 
L 329.993688 216.999535 
L 334.268037 220.266324 
L 338.542388 223.470866 
L 342.816737 226.584889 
L 347.091088 229.562125 
L 351.365437 232.354017 
L 355.639788 234.92002 
L 359.914137 237.239962 
L 364.188488 239.308676 
L 368.462837 241.135112 
L 372.737188 242.744975 
L 377.011537 244.176049 
L 381.285888 245.479518 
L 385.560237 246.720835 
L 389.834587 247.980706 
L 394.108937 249.346363 
L 398.383287 250.908378 
L 402.657638 252.741075 
L 406.931987 254.897874 
L 411.206338 257.387045 
L 415.480687 260.169067 
L 419.755038 263.145442 
L 424.029387 266.166529 
L 428.303738 269.045898 
L 432.578087 271.587513 
L 436.852438 273.611369 
L 441.126787 275.000243 
L 445.401138 275.722743 
L 449.675487 275.838518 
L 453.949838 275.486653 
L 458.224187 274.843976 
L 462.498537 274.06582 
L 466.772888 273.20542 
L 471.047237 272.137024 
L 475.321588 270.555319 
L 479.595937 267.977716 
" clip-path="url(#pc1fdf48e63)" style="fill: none; stroke: #1f77b4; stroke-width: 2.5; stroke-linecap: round"/>
   </g>
   <g id="line2d_19">
    <path d="M 52.160938 237.827276 
L 56.435288 232.220056 
L 60.709638 226.137507 
L 64.983988 219.295744 
L 69.258338 211.447519 
L 73.532688 202.477502 
L 77.807038 192.593022 
L 82.081388 182.260175 
L 86.355738 172.163741 
L 90.630088 163.081544 
L 94.904438 155.690713 
L 99.178788 150.449494 
L 103.453138 147.500882 
L 107.727488 146.642433 
L 112.001838 147.4305 
L 116.276188 149.309837 
L 120.550538 151.762902 
L 124.824888 154.400451 
L 129.099238 157.044116 
L 133.373588 159.69445 
L 137.647938 162.47502 
L 141.922288 165.545198 
L 146.196638 169.016383 
L 150.470988 172.909181 
L 154.745338 177.116806 
L 159.019688 181.437392 
L 163.294038 185.606368 
L 167.568388 189.360243 
L 171.842738 192.473971 
L 176.117088 194.776871 
L 180.391438 196.177296 
L 184.665788 196.637808 
L 188.940138 196.173383 
L 193.214488 194.824843 
L 197.488838 192.660996 
L 201.763188 189.756298 
L 206.037538 186.178943 
L 210.311888 182.002567 
L 214.586238 177.3006 
L 218.860588 172.142648 
L 223.134938 166.612903 
L 227.409288 160.793815 
L 231.683638 154.786266 
L 235.957988 148.706164 
L 240.232338 142.69569 
L 244.506688 136.932337 
L 248.781038 131.619406 
L 253.055388 126.986653 
L 257.329738 123.292647 
L 261.604087 120.818494 
L 265.878438 119.735286 
L 270.152787 120.284316 
L 274.427138 122.476287 
L 278.701487 126.303786 
L 282.975838 131.581159 
L 287.250187 137.978711 
L 291.524538 145.05792 
L 295.798888 152.300524 
L 300.073238 159.201362 
L 304.347588 165.313942 
L 308.621938 170.301715 
L 312.896287 173.992605 
L 317.170637 176.400053 
L 321.444987 177.678621 
L 325.719337 178.087075 
L 329.993688 177.969389 
L 334.268037 177.717354 
L 338.542388 177.682748 
L 342.816737 178.17518 
L 347.091088 179.449888 
L 351.365437 181.660256 
L 355.639788 184.876072 
L 359.914137 189.080134 
L 364.188488 194.199062 
L 368.462837 200.094211 
L 372.737188 206.578039 
L 377.011537 213.444793 
L 381.285888 220.472354 
L 385.560237 227.444869 
L 389.834587 234.177781 
L 394.108937 240.526123 
L 398.383287 246.391862 
L 402.657638 251.736383 
L 406.931987 256.559757 
L 411.206338 260.88933 
L 415.480687 264.752004 
L 419.755038 268.171528 
L 424.029387 271.135864 
L 428.303738 273.590929 
L 432.578087 275.44745 
L 436.852438 276.571309 
L 441.126787 276.833995 
L 445.401138 276.130144 
L 449.675487 274.382475 
L 453.949838 271.587259 
L 458.224187 267.863413 
L 462.498537 263.38403 
L 466.772888 258.375371 
L 471.047237 253.103301 
L 475.321588 247.741345 
L 479.595937 242.378515 
" clip-path="url(#pc1fdf48e63)" style="fill: none; stroke-dasharray: 9.25,4; stroke-dashoffset: 0; stroke: #d62728; stroke-width: 2.5"/>
   </g>
  </g>
 </g>
 <defs>
  <clipPath id="pc1fdf48e63">
   <rect x="52.160938" y="22.318125" width="427.435" height="292.6"/>
  </clipPath>
 </defs>
</svg>
