<?xml version="1.0" encoding="utf-8" standalone="no"?>
<!DOCTYPE svg PUBLIC "-//W3C//DTD SVG 1.1//EN"
  "http://www.w3.org/Graphics/SVG/1.1/DTD/svg11.dtd">
<svg xmlns:xlink="http://www.w3.org/1999/xlink" width="496.339687pt" height="352.474375pt" viewBox="0 0 496.339687 352.474375" xmlns="http://www.w3.org/2000/svg" version="1.1">
 <metadata>
  <rdf:RDF xmlns:dc="http://purl.org/dc/elements/1.1/" xmlns:cc="http://creativecommons.org/ns#" xmlns:rdf="http://www.w3.org/1999/02/22-rdf-syntax-ns#">
   <cc:Work>
    <dc:type rdf:resource="http://purl.org/dc/dcmitype/StillImage"/>
    <dc:date>2026-08-25T19:09:48.479844</dc:date>
    <dc:format>image/svg+xml</dc:format>
    <dc:creator>
     <cc:Agent>
      <dc:title>Matplotlib v3.10.8, https://matplotlib.org/</dc:title>
     </cc:Agent>
    </dc:creator>
   </cc:Work>
  </rdf:RDF>
 </metadata>
 <defs>
  <style type="text/css">*{stroke-linejoin: round; stroke-linecap: butt}</style>
 </defs>
 <g id="figure_1">
  <g id="patch_1">
   <path d="M 0 352.474375 
L 496.339687 352.474375 
L 496.339687 0 
L 0 0 
z
" style="fill: #ffffff"/>
  </g>
  <g id="axes_1">
   <g id="patch_2">
    <path d="M 52.160938 314.918125 
L 479.595937 314.918125 
L 479.595937 22.318125 
L 52.160938 22.318125 
z
" style="fill: #ffffff"/>
   </g>
   <g id="line2d_1">
    <path d="M 52.160938 314.918125 
L 52.160938 22.318125 
" clip-path="url(#pef26a9d631)" style="fill: none; stroke: #bfbfbf; stroke-width: 0.8; stroke-linecap: square"/>
   </g>
   <g id="matplotlib.axis_1">
    <g id="xtick_1">
     <g id="line2d_2">
      <path d="M 52.160938 314.918125 
L 52.160938 22.318125 
" clip-path="url(#pef26a9d631)" style="fill: none; stroke: #b0b0b0; stroke-opacity: 0.3; stroke-width: 0.8; stroke-linecap: square"/>
     </g>
     <g id="line2d_3">
      <defs>
       <path id="m4e42a0f894" d="M 0 0 
L 0 3.5 
" style="stroke: #000000; stroke-width: 0.8"/>
      </defs>
      <g>
       <use xlink:href="#m4e42a0f894" x="52.160938" y="314.918125" style="stroke: #000000; stroke-width: 0.8"/>
      </g>
     </g>
     <g id="text_1">
      <text style="font-size: 10px; font-family: 'DejaVu Sans', 'Bitstream Vera Sans', 'Computer Modern Sans Serif', 'Lucida Grande', 'Verdana', 'Geneva', 'Lucid', 'Arial', 'Helvetica', 'Avant Garde', sans-serif; text-anchor: middle" x="52.160938" y="329.516563" transform="rotate(-0 52.160938 329.516563)">0</text>
     </g>
    </g>
    <g id="xtick_2">
     <g id="line2d_4">
      <path d="M 137.647938 314.918125 
L 137.647938 22.318125 
" clip-path="url(#pef26a9d631)" style="fill: none; stroke: #b0b0b0; stroke-opacity: 0.3; stroke-width: 0.8; stroke-linecap: square"/>
     </g>
     <g id="line2d_5">
      <g>
       <use xlink:href="#m4e42a0f894" x="137.647938" y="314.918125" style="stroke: #000000; stroke-width: 0.8"/>
      </g>
     </g>
     <g id="text_2">
      <text style="font-size: 10px; font-family: 'DejaVu Sans', 'Bitstream Vera Sans', 'Computer Modern Sans Serif', 'Lucida Grande', 'Verdana', 'Geneva', 'Lucid', 'Arial', 'Helvetica', 'Avant Garde', sans-serif; text-anchor: middle" x="137.647938" y="329.516563" transform="rotate(-0 137.647938 329.516563)">20</text>
     </g>
    </g>
    <g id="xtick_3">
     <g id="line2d_6">
      <path d="M 223.134938 314.918125 
L 223.134938 22.318125 
" clip-path="url(#pef26a9d631)" style="fill: none; stroke: #b0b0b0; stroke-opacity: 0.3; stroke-width: 0.8; stroke-linecap: square"/>
     </g>
     <g id="line2d_7">
      <g>
       <use xlink:href="#m4e42a0f894" x="223.134938" y="314.918125" style="stroke: #000000; stroke-width: 0.8"/>
      </g>
     </g>
     <g id="text_3">
      <text style="font-size: 10px; font-family: 'DejaVu Sans', 'Bitstream Vera Sans', 'Computer Modern Sans Serif', 'Lucida Grande', 'Verdana', 'Geneva', 'Lucid', 'Arial', 'Helvetica', 'Avant Garde', sans-serif; text-anchor: middle" x="223.134938" y="329.516563" transform="rotate(-0 223.134938 329.516563)">40</text>
     </g>
    </g>
    <g id="xtick_4">
     <g id="line2d_8">
      <path d="M 308.621938 314.918125 
L 308.621938 22.318125 
" clip-path="url(#pef26a9d631)" style="fill: none; stroke: #b0b0b0; stroke-opacity: 0.3; stroke-width: 0.8; stroke-linecap: square"/>
     </g>
     <g id="line2d_9">
      <g>
       <use xlink:href="#m4e42a0f894" x="308.621938" y="314.918125" style="stroke: #000000; stroke-width: 0.8"/>
      </g>
     </g>
     <g id="text_4">
      <text style="font-size: 10px; font-family: 'DejaVu Sans', 'Bitstream Vera Sans', 'Computer Modern Sans Serif', 'Lucida Grande', 'Verdana', 'Geneva', 'Lucid', 'Arial', 'Helvetica', 'Avant Garde', sans-serif; text-anchor: middle" x="308.621938" y="329.516563" transform="rotate(-0 308.621938 329.516563)">60</text>
     </g>
    </g>
    <g id="xtick_5">
     <g id="line2d_10">
      <path d="M 394.108937 314.918125 
L 394.108937 22.318125 
" clip-path="url(#pef26a9d631)" style="fill: none; stroke: #b0b0b0; stroke-opacity: 0.3; stroke-width: 0.8; stroke-linecap: square"/>
     </g>
     <g id="line2d_11">
      <g>
       <use xlink:href="#m4e42a0f894" x="394.108937" y="314.918125" style="stroke: #000000; stroke-width: 0.8"/>
      </g>
     </g>
     <g id="text_5">
      <text style="font-size: 10px; font-family: 'DejaVu Sans', 'Bitstream Vera Sans', 'Computer Modern Sans Serif', 'Lucida Grande', 'Verdana', 'Geneva', 'Lucid', 'Arial', 'Helvetica', 'Avant Garde', sans-serif; text-anchor: middle" x="394.108937" y="329.516563" transform="rotate(-0 394.108937 329.516563)">80</text>
     </g>
    </g>
    <g id="xtick_6">
     <g id="line2d_12">
      <path d="M 479.595937 314.918125 
L 479.595937 22.318125 
" clip-path="url(#pef26a9d631)" style="fill: none; stroke: #b0b0b0; stroke-opacity: 0.3; stroke-width: 0.8; stroke-linecap: square"/>
     </g>
     <g id="line2d_13">
      <g>
       <use xlink:href="#m4e42a0f894" x="479.595937" y="314.918125" style="stroke: #000000; stroke-width: 0.8"/>
      </g>
     </g>
     <g id="text_6">
      <text style="font-size: 10px; font-family: 'DejaVu Sans', 'Bitstream Vera Sans', 'Computer Modern Sans Serif', 'Lucida Grande', 'Verdana', 'Geneva', 'Lucid', 'Arial', 'Helvetica', 'Avant Garde', sans-serif; text-anchor: middle" x="479.595937" y="329.516563" transform="rotate(-0 479.595937 329.516563)">100</text>
     </g>
    </g>
    <g id="text_7">
     <text style="font-size: 10px; font-family: 'DejaVu Sans', 'Bitstream Vera Sans', 'Computer Modern Sans Serif', 'Lucida Grande', 'Verdana', 'Geneva', 'Lucid', 'Arial', 'Helvetica', 'Avant Garde', sans-serif; text-anchor: middle" x="265.878438" y="343.194687" transform="rotate(-0 265.878438 343.194687)">Gait cycle (%)</text>
    </g>
   </g>
   <g id="matplotlib.axis_2">
    <g id="ytick_1">
     <g id="line2d_14">
      <path d="M 52.160938 293.457592 
L 479.595937 293.457592 
" clip-path="url(#pef26a9d631)" style="fill: none; stroke: #b0b0b0; stroke-opacity: 0.3; stroke-width: 0.8; stroke-linecap: square"/>
     </g>
     <g id="line2d_15">
      <defs>
       <path id="m279e98db4d" d="M 0 0 
L -3.5 0 
" style="stroke: #000000; stroke-width: 0.8"/>
      </defs>
      <g>
       <use xlink:href="#m279e98db4d" x="52.160938" y="293.457592" style="stroke: #000000; stroke-width: 0.8"/>
      </g>
     </g>
     <g id="text_8">
      <text style="font-size: 10px; font-family: 'DejaVu Sans', 'Bitstream Vera Sans', 'Computer Modern Sans Serif', 'Lucida Grande', 'Verdana', 'Geneva', 'Lucid', 'Arial', 'Helvetica', 'Avant Garde', sans-serif; text-anchor: end" x="45.160938" y="297.25681" transform="rotate(-0 45.160938 297.25681)">−2.0</text>
     </g>
    </g>
    <g id="ytick_2">
     <g id="line2d_16">
      <path d="M 52.160938 233.921933 
L 479.595937 233.921933 
" clip-path="url(#pef26a9d631)" style="fill: none; stroke: #b0b0b0; stroke-opacity: 0.3; stroke-width: 0.8; stroke-linecap: square"/>
     </g>
     <g id="line2d_17">
      <g>
       <use xlink:href="#m279e98db4d" x="52.160938" y="233.921933" style="stroke: #000000; stroke-width: 0.8"/>
      </g>
     </g>
     <g id="text_9">
      <text style="font-size: 10px; font-family: 'DejaVu Sans', 'Bitstream Vera Sans', 'Computer Modern Sans Serif', 'Lucida Grande', 'Verdana', 'Geneva', 'Lucid', 'Arial', 'Helvetica', 'Avant Garde', sans-serif; text-anchor: end" x="45.160938" y="237.721152" transform="rotate(-0 45.160938 237.721152)">−1.5</text>
     </g>
    </g>
    <g id="ytick_3">
     <g id="line2d_18">
      <path d="M 52.160938 174.386274 
L 479.595937 174.386274 
" clip-path="url(#pef26a9d631)" style="fill: none; stroke: #b0b0b0; stroke-opacity: 0.3; stroke-width: 0.8; stroke-linecap: square"/>
     </g>
     <g id="line2d_19">
      <g>
       <use xlink:href="#m279e98db4d" x="52.160938" y="174.386274" style="stroke: #000000; stroke-width: 0.8"/>
      </g>
     </g>
     <g id="text_10">
      <text style="font-size: 10px; font-family: 'DejaVu Sans', 'Bitstream Vera Sans', 'Computer Modern Sans Serif', 'Lucida Grande', 'Verdana', 'Geneva', 'Lucid', 'Arial', 'Helvetica', 'Avant Garde', sans-serif; text-anchor: end" x="45.160938" y="178.185493" transform="rotate(-0 45.160938 178.185493)">−1.0</text>
     </g>
    </g>
    <g id="ytick_4">
     <g id="line2d_20">
      <path d="M 52.160938 114.850615 
L 479.595937 114.850615 
" clip-path="url(#pef26a9d631)" style="fill: none; stroke: #b0b0b0; stroke-opacity: 0.3; stroke-width: 0.8; stroke-linecap: square"/>
     </g>
     <g id="line2d_21">
      <g>
       <use xlink:href="#m279e98db4d" x="52.160938" y="114.850615" style="stroke: #000000; stroke-width: 0.8"/>
      </g>
     </g>
     <g id="text_11">
      <text style="font-size: 10px; font-family: 'DejaVu Sans', 'Bitstream Vera Sans', 'Computer Modern Sans Serif', 'Lucida Grande', 'Verdana', 'Geneva', 'Lucid', 'Arial', 'Helvetica', 'Avant Garde', sans-serif; text-anchor: end" x="45.160938" y="118.649834" transform="rotate(-0 45.160938 118.649834)">−0.5</text>
     </g>
    </g>
    <g id="ytick_5">
     <g id="line2d_22">
      <path d="M 52.160938 55.314957 
L 479.595937 55.314957 
" clip-path="url(#pef26a9d631)" style="fill: none; stroke: #b0b0b0; stroke-opacity: 0.3; stroke-width: 0.8; stroke-linecap: square"/>
     </g>
     <g id="line2d_23">
      <g>
       <use xlink:href="#m279e98db4d" x="52.160938" y="55.314957" style="stroke: #000000; stroke-width: 0.8"/>
      </g>
     </g>
     <g id="text_12">
      <text style="font-size: 10px; font-family: 'DejaVu Sans', 'Bitstream Vera Sans', 'Computer Modern Sans Serif', 'Lucida Grande', 'Verdana', 'Geneva', 'Lucid', 'Arial', 'Helvetica', 'Avant Garde', sans-serif; text-anchor: end" x="45.160938" y="59.114175" transform="rotate(-0 45.160938 59.114175)">0.0</text>
     </g>
    </g>
    <g id="text_13">
     <text style="font-size: 10px; font-family: 'DejaVu Sans', 'Bitstream Vera Sans', 'Computer Modern Sans Serif', 'Lucida Grande', 'Verdana', 'Geneva', 'Lucid', 'Arial', 'Helvetica', 'Avant Garde', sans-serif; text-anchor: middle" x="14.798438" y="168.618125" transform="rotate(-90 14.798438 168.618125)">Moment (N·m/kg)</text>
    </g>
   </g>
   <g id="patch_3">
    <path d="M 52.160938 314.918125 
L 52.160938 22.318125 
" style="fill: none; stroke: #000000; stroke-width: 0.8; stroke-linejoin: miter; stroke-linecap: square"/>
   </g>
   <g id="patch_4">
    <path d="M 479.595937 314.918125 
L 479.595937 22.318125 
" style="fill: none; stroke: #000000; stroke-width: 0.8; stroke-linejoin: miter; stroke-linecap: square"/>
   </g>
   <g id="patch_5">
    <path d="M 52.160938 314.918125 
L 479.595937 314.918125 
" style="fill: none; stroke: #000000; stroke-width: 0.8; stroke-linejoin: miter; stroke-linecap: square"/>
   </g>
   <g id="patch_6">
    <path d="M 52.160938 22.318125 
L 479.595937 22.318125 
" style="fill: none; stroke: #000000; stroke-width: 0.8; stroke-linejoin: miter; stroke-linecap: square"/>
   </g>
   <g id="text_14">
    <text style="font-size: 12px; font-family: 'DejaVu Sans', 'Bitstream Vera Sans', 'Computer Modern Sans Serif', 'Lucida Grande', 'Verdana', 'Geneva', 'Lucid', 'Arial', 'Helvetica', 'Avant Garde', sans-serif; text-anchor: middle" x="265.878438" y="16.318125" transform="rotate(-0 265.878438 16.318125)">LG_1p6mps — GT vs Model Ankle (R) (n=8 subjects)</text>
   </g>
   <g id="FillBetweenPolyCollection_1">
    <defs>
     <path id="m7a1556d14b" d="M 52.160938 -90.156913 
L 52.160938 -77.504292 
L 56.435288 -89.270088 
L 60.709638 -103.96277 
L 64.983988 -122.031028 
L 69.258338 -142.978854 
L 73.532688 -165.915757 
L 77.807038 -189.762721 
L 82.081388 -213.38475 
L 86.355738 -235.704549 
L 90.630088 -255.799419 
L 94.904438 -272.973821 
L 99.178788 -286.796664 
L 103.453138 -297.107424 
L 107.727488 -303.961041 
L 112.001838 -307.38739 
L 116.276188 -307.425143 
L 120.550538 -305.635336 
L 124.824888 -303.236736 
L 129.099238 -300.794936 
L 133.373588 -298.653631 
L 137.647938 -297.015071 
L 141.922288 -295.969238 
L 146.196638 -295.504501 
L 150.470988 -295.473323 
L 154.745338 -295.46269 
L 159.019688 -295.762875 
L 163.294038 -296.454209 
L 167.568388 -297.412784 
L 171.842738 -298.499747 
L 176.117088 -299.580651 
L 180.391438 -300.532621 
L 184.665788 -301.249504 
L 188.940138 -301.655019 
L 193.214488 -301.721072 
L 197.488838 -301.46123 
L 201.763188 -300.918156 
L 206.037538 -300.147966 
L 210.311888 -299.217951 
L 214.586238 -298.205128 
L 218.860588 -297.182412 
L 223.134938 -296.192122 
L 227.409288 -295.264514 
L 231.683638 -294.49106 
L 235.957988 -294.017984 
L 240.232338 -293.97311 
L 244.506688 -294.435498 
L 248.781038 -295.428673 
L 253.055388 -296.910953 
L 257.329738 -298.767726 
L 261.604087 -300.804957 
L 265.878438 -302.742548 
L 270.152787 -304.187021 
L 274.427138 -304.666556 
L 278.701487 -303.684492 
L 282.975838 -300.921504 
L 287.250187 -296.374716 
L 291.524538 -290.27675 
L 295.798888 -282.984452 
L 300.073238 -274.911793 
L 304.347588 -266.501483 
L 308.621938 -258.17952 
L 312.896287 -250.335856 
L 317.170637 -243.285123 
L 321.444987 -237.260874 
L 325.719337 -232.395842 
L 329.993688 -228.719157 
L 334.268037 -226.1715 
L 338.542388 -224.618961 
L 342.816737 -223.863226 
L 347.091088 -223.65946 
L 351.365437 -223.760253 
L 355.639788 -223.930724 
L 359.914137 -223.966149 
L 364.188488 -223.702966 
L 368.462837 -223.018112 
L 372.737188 -221.821715 
L 377.011537 -220.048239 
L 381.285888 -217.657299 
L 385.560237 -214.620078 
L 389.834587 -210.912291 
L 394.108937 -206.508514 
L 398.383287 -201.368665 
L 402.657638 -195.451547 
L 406.931987 -188.701094 
L 411.206338 -181.054523 
L 415.480687 -172.457161 
L 419.755038 -162.873146 
L 424.029387 -152.302092 
L 428.303738 -140.806443 
L 432.578087 -128.524638 
L 436.852438 -115.691012 
L 441.126787 -102.650578 
L 445.401138 -89.857402 
L 449.675487 -77.864538 
L 453.949838 -67.303466 
L 458.224187 -58.848347 
L 462.498537 -53.166686 
L 466.772888 -50.85625 
L 471.047237 -52.362534 
L 475.321588 -57.841597 
L 479.595937 -66.794663 
L 479.595937 -80.843544 
L 479.595937 -80.843544 
L 475.321588 -78.754551 
L 471.047237 -81.564382 
L 466.772888 -88.079218 
L 462.498537 -97.411431 
L 458.224187 -108.736727 
L 453.949838 -121.281149 
L 449.675487 -134.351774 
L 445.401138 -147.366699 
L 441.126787 -159.873155 
L 436.852438 -171.551702 
L 432.578087 -182.206829 
L 428.303738 -191.750566 
L 424.029387 -200.181283 
L 419.755038 -207.55731 
L 415.480687 -213.969861 
L 411.206338 -219.527712 
L 406.931987 -224.333484 
L 402.657638 -228.471479 
L 398.383287 -232.004549 
L 394.108937 -234.970822 
L 389.834587 -237.387706 
L 385.560237 -239.268542 
L 381.285888 -240.62424 
L 377.011537 -241.484458 
L 372.737188 -241.905391 
L 368.462837 -241.975383 
L 364.188488 -241.834471 
L 359.914137 -241.657853 
L 355.639788 -241.651247 
L 351.365437 -242.035179 
L 347.091088 -243.020315 
L 342.816737 -244.783922 
L 338.542388 -247.45634 
L 334.268037 -251.112559 
L 329.993688 -255.748164 
L 325.719337 -261.280821 
L 321.444987 -267.552794 
L 317.170637 -274.335038 
L 312.896287 -281.3445 
L 308.621938 -288.26724 
L 304.347588 -294.774431 
L 300.073238 -300.582841 
L 295.798888 -305.46312 
L 291.524538 -309.27403 
L 287.250187 -311.984427 
L 282.975838 -313.67943 
L 278.701487 -314.523829 
L 274.427138 -314.648255 
L 270.152787 -314.05198 
L 265.878438 -312.703752 
L 261.604087 -310.681663 
L 257.329738 -308.204939 
L 253.055388 -305.545404 
L 248.781038 -302.97508 
L 244.506688 -300.724824 
L 240.232338 -298.962325 
L 235.957988 -297.78433 
L 231.683638 -297.222751 
L 227.409288 -297.256539 
L 223.134938 -297.820783 
L 218.860588 -298.764254 
L 214.586238 -299.864577 
L 210.311888 -300.933173 
L 206.037538 -301.844531 
L 201.763188 -302.520014 
L 197.488838 -302.917124 
L 193.214488 -303.025261 
L 188.940138 -302.863241 
L 184.665788 -302.468161 
L 180.391438 -301.869919 
L 176.117088 -301.087748 
L 171.842738 -300.150336 
L 167.568388 -299.109415 
L 163.294038 -298.040825 
L 159.019688 -297.044229 
L 154.745338 -296.25526 
L 150.470988 -295.997536 
L 146.196638 -296.768373 
L 141.922288 -298.285004 
L 137.647938 -300.405098 
L 133.373588 -302.963079 
L 129.099238 -305.681579 
L 124.824888 -308.18153 
L 120.550538 -310.000313 
L 116.276188 -310.703048 
L 112.001838 -310.37218 
L 107.727488 -309.376213 
L 103.453138 -306.642278 
L 99.178788 -301.279584 
L 94.904438 -292.745444 
L 90.630088 -280.735782 
L 86.355738 -265.197221 
L 82.081388 -246.345555 
L 77.807038 -224.676501 
L 73.532688 -200.945102 
L 69.258338 -176.119059 
L 64.983988 -151.315272 
L 60.709638 -127.743765 
L 56.435288 -106.737066 
L 52.160938 -90.156913 
z
" style="stroke: #1f77b4; stroke-opacity: 0.25"/>
    </defs>
    <g clip-path="url(#pef26a9d631)">
     <use xlink:href="#m7a1556d14b" x="0" y="352.474375" style="fill: #1f77b4; fill-opacity: 0.25; stroke: #1f77b4; stroke-opacity: 0.25"/>
    </g>
   </g>
   <g id="legend_1">
    <g id="patch_7">
     <path d="M 379.031875 89.030625 
L 472.595937 89.030625 
Q 474.595937 89.030625 474.595937 87.030625 
L 474.595937 29.318125 
Q 474.595937 27.318125 472.595937 27.318125 
L 379.031875 27.318125 
Q 377.031875 27.318125 377.031875 29.318125 
L 377.031875 87.030625 
Q 377.031875 89.030625 379.031875 89.030625 
z
" style="fill: #ffffff; opacity: 0.95; stroke: #cccccc; stroke-linejoin: miter"/>
    </g>
    <g id="patch_8">
     <path d="M 381.031875 38.916562 
L 401.031875 38.916562 
L 401.031875 31.916562 
L 381.031875 31.916562 
z
" style="fill: #1f77b4; fill-opacity: 0.25; stroke: #1f77b4; stroke-opacity: 0.25; stroke-linejoin: miter"/>
    </g>
    <g id="text_15">
     <text style="font-size: 10px; font-family: 'DejaVu Sans', 'Bitstream Vera Sans', 'Computer Modern Sans Serif', 'Lucida Grande', 'Verdana', 'Geneva', 'Lucid', 'Arial', 'Helvetica', 'Avant Garde', sans-serif; text-anchor: start" x="409.031875" y="38.916562" transform="rotate(-0 409.031875 38.916562)">GT ± std</text>
    </g>
    <g id="line2d_24">
     <path d="M 381.031875 50.094688 
L 391.031875 50.094688 
L 401.031875 50.094688 
" style="fill: none; stroke: #1f77b4; stroke-width: 2.5; stroke-linecap: round"/>
    </g>
    <g id="text_16">
     <text style="font-size: 10px; font-family: 'DejaVu Sans', 'Bitstream Vera Sans', 'Computer Modern Sans Serif', 'Lucida Grande', 'Verdana', 'Geneva', 'Lucid', 'Arial', 'Helvetica', 'Avant Garde', sans-serif; text-anchor: start" x="409.031875" y="53.594688" transform="rotate(-0 409.031875 53.594688)">GT mean</text>
    </g>
    <g id="patch_9">
     <path d="M 381.031875 68.272812 
L 401.031875 68.272812 
L 401.031875 61.272812 
L 381.031875 61.272812 
z
" style="fill: #d62728; fill-opacity: 0.25; stroke: #d62728; stroke-opacity: 0.25; stroke-linejoin: miter"/>
    </g>
    <g id="text_17">
     <text style="font-size: 10px; font-family: 'DejaVu Sans', 'Bitstream Vera Sans', 'Computer Modern Sans Serif', 'Lucida Grande', 'Verdana', 'Geneva', 'Lucid', 'Arial', 'Helvetica', 'Avant Garde', sans-serif; text-anchor: start" x="409.031875" y="68.272812" transform="rotate(-0 409.031875 68.272812)">Model ± std</text>
    </g>
    <g id="line2d_25">
     <path d="M 381.031875 79.450938 
L 391.031875 79.450938 
L 401.031875 79.450938 
" style="fill: none; stroke-dasharray: 9.25,4; stroke-dashoffset: 0; stroke: #d62728; stroke-width: 2.5"/>
    </g>
    <g id="text_18">
     <text style="font-size: 10px; font-family: 'DejaVu Sans', 'Bitstream Vera Sans', 'Computer Modern Sans Serif', 'Lucida Grande', 'Verdana', 'Geneva', 'Lucid', 'Arial', 'Helvetica', 'Avant Garde', sans-serif; text-anchor: start" x="409.031875" y="82.950938" transform="rotate(-0 409.031875 82.950938)">Model mean</text>
    </g>
   </g>
   <g id="FillBetweenPolyCollection_2">
    <defs>
     <path id="m479c23ee90" d="M 52.160938 -136.021818 
L 52.160938 -96.150238 
L 56.435288 -103.664936 
L 60.709638 -114.487932 
L 64.983988 -128.47977 
L 69.258338 -145.250878 
L 73.532688 -164.210299 
L 77.807038 -184.616652 
L 82.081388 -205.635988 
L 86.355738 -226.40533 
L 90.630088 -246.097506 
L 94.904438 -263.981194 
L 99.178788 -279.467032 
L 103.453138 -292.13758 
L 107.727488 -301.736143 
L 112.001838 -308.042568 
L 116.276188 -310.657234 
L 120.550538 -310.156089 
L 124.824888 -308.242984 
L 129.099238 -305.857281 
L 133.373588 -303.461792 
L 137.647938 -301.335601 
L 141.922288 -299.646142 
L 146.196638 -298.464201 
L 150.470988 -297.782714 
L 154.745338 -297.528906 
L 159.019688 -297.605957 
L 163.294038 -297.949428 
L 167.568388 -298.514049 
L 171.842738 -299.235072 
L 176.117088 -300.000929 
L 180.391438 -300.67288 
L 184.665788 -301.116096 
L 188.940138 -301.23353 
L 193.214488 -301.001265 
L 197.488838 -300.468074 
L 201.763188 -299.727355 
L 206.037538 -298.887008 
L 210.311888 -298.057963 
L 214.586238 -297.347801 
L 218.860588 -296.852222 
L 223.134938 -296.644347 
L 227.409288 -296.767456 
L 231.683638 -297.215809 
L 235.957988 -297.953232 
L 240.232338 -298.943592 
L 244.506688 -300.152378 
L 248.781038 -301.522615 
L 253.055388 -302.964719 
L 257.329738 -304.364751 
L 261.604087 -305.595048 
L 265.878438 -306.522542 
L 270.152787 -307.006522 
L 274.427138 -306.917221 
L 278.701487 -306.118901 
L 282.975838 -304.473574 
L 287.250187 -301.853864 
L 291.524538 -298.175125 
L 295.798888 -293.431649 
L 300.073238 -287.712032 
L 304.347588 -281.18645 
L 308.621938 -274.086112 
L 312.896287 -266.681369 
L 317.170637 -259.262873 
L 321.444987 -252.118484 
L 325.719337 -245.512624 
L 329.993688 -239.66507 
L 334.268037 -234.731743 
L 338.542388 -230.792688 
L 342.816737 -227.842717 
L 347.091088 -225.785822 
L 351.365437 -224.459217 
L 355.639788 -223.648271 
L 359.914137 -223.110737 
L 364.188488 -222.6002 
L 368.462837 -221.886391 
L 372.737188 -220.771797 
L 377.011537 -219.102479 
L 381.285888 -216.785577 
L 385.560237 -213.788931 
L 389.834587 -210.133927 
L 394.108937 -205.877314 
L 398.383287 -201.082541 
L 402.657638 -195.802611 
L 406.931987 -190.056291 
L 411.206338 -183.824828 
L 415.480687 -177.062717 
L 419.755038 -169.717591 
L 424.029387 -161.759279 
L 428.303738 -153.2125 
L 432.578087 -144.179497 
L 436.852438 -134.854923 
L 441.126787 -125.528096 
L 445.401138 -116.568778 
L 449.675487 -108.400739 
L 453.949838 -101.4585 
L 458.224187 -96.119826 
L 462.498537 -92.595392 
L 466.772888 -90.756726 
L 471.047237 -90.068958 
L 475.321588 -90.236407 
L 479.595937 -91.940409 
L 479.595937 -124.175001 
L 479.595937 -124.175001 
L 475.321588 -116.395656 
L 471.047237 -113.280267 
L 466.772888 -115.054244 
L 462.498537 -120.71682 
L 458.224187 -128.848087 
L 453.949838 -138.332859 
L 449.675487 -148.373713 
L 445.401138 -158.393908 
L 441.126787 -167.989706 
L 436.852438 -176.90749 
L 432.578087 -185.022018 
L 428.303738 -192.31185 
L 424.029387 -198.82845 
L 419.755038 -204.660759 
L 415.480687 -209.902519 
L 411.206338 -214.637841 
L 406.931987 -218.925389 
L 402.657638 -222.799059 
L 398.383287 -226.278081 
L 394.108937 -229.371847 
L 389.834587 -232.087535 
L 385.560237 -234.450155 
L 381.285888 -236.492548 
L 377.011537 -238.264938 
L 372.737188 -239.83494 
L 368.462837 -241.293211 
L 364.188488 -242.754342 
L 359.914137 -244.351355 
L 355.639788 -246.224358 
L 351.365437 -248.50022 
L 347.091088 -251.273157 
L 342.816737 -254.593658 
L 338.542388 -258.4658 
L 334.268037 -262.849935 
L 329.993688 -267.657665 
L 325.719337 -272.769878 
L 321.444987 -278.049026 
L 317.170637 -283.348733 
L 312.896287 -288.52547 
L 308.621938 -293.450158 
L 304.347588 -298.008521 
L 300.073238 -302.12144 
L 295.798888 -305.729048 
L 291.524538 -308.781559 
L 287.250187 -311.234833 
L 282.975838 -313.029719 
L 278.701487 -314.107344 
L 274.427138 -314.436015 
L 270.152787 -314.03706 
L 265.878438 -312.988382 
L 261.604087 -311.408365 
L 257.329738 -309.462121 
L 253.055388 -307.318321 
L 248.781038 -305.147254 
L 244.506688 -303.110965 
L 240.232338 -301.357289 
L 235.957988 -300.012143 
L 231.683638 -299.159628 
L 227.409288 -298.806318 
L 223.134938 -298.889335 
L 218.860588 -299.314566 
L 214.586238 -299.974278 
L 210.311888 -300.756577 
L 206.037538 -301.550113 
L 201.763188 -302.253958 
L 197.488838 -302.788715 
L 193.214488 -303.106749 
L 188.940138 -303.19892 
L 184.665788 -303.085234 
L 180.391438 -302.784146 
L 176.117088 -302.316184 
L 171.842738 -301.734033 
L 167.568388 -301.14258 
L 163.294038 -300.705518 
L 159.019688 -300.637138 
L 154.745338 -301.149861 
L 150.470988 -302.357974 
L 146.196638 -304.24718 
L 141.922288 -306.694368 
L 137.647938 -309.479678 
L 133.373588 -312.289266 
L 129.099238 -314.730471 
L 124.824888 -316.374679 
L 120.550538 -316.85625 
L 116.276188 -316.227993 
L 112.001838 -315.314618 
L 107.727488 -313.892123 
L 103.453138 -310.945739 
L 99.178788 -305.877244 
L 94.904438 -298.353301 
L 90.630088 -288.231293 
L 86.355738 -275.544482 
L 82.081388 -260.500338 
L 77.807038 -243.47877 
L 73.532688 -225.013508 
L 69.258338 -205.76103 
L 64.983988 -186.460411 
L 60.709638 -167.889543 
L 56.435288 -150.82561 
L 52.160938 -136.021818 
z
" style="stroke: #d62728; stroke-opacity: 0.25"/>
    </defs>
    <g clip-path="url(#pef26a9d631)">
     <use xlink:href="#m479c23ee90" x="0" y="352.474375" style="fill: #d62728; fill-opacity: 0.25; stroke: #d62728; stroke-opacity: 0.25"/>
    </g>
   </g>
   <g id="line2d_26">
    <path d="M 52.160938 268.643772 
L 56.435288 254.470798 
L 60.709638 236.621108 
L 64.983988 215.801225 
L 69.258338 192.925419 
L 73.532688 169.043945 
L 77.807038 145.254764 
L 82.081388 122.609223 
L 86.355738 102.02349 
L 90.630088 84.206775 
L 94.904438 69.614742 
L 99.178788 58.436251 
L 103.453138 50.599524 
L 107.727488 45.805748 
L 112.001838 43.59459 
L 116.276188 43.410279 
L 120.550538 44.656551 
L 124.824888 46.765242 
L 129.099238 49.236117 
L 133.373588 51.66602 
L 137.647938 53.764291 
L 141.922288 55.347254 
L 146.196638 56.337938 
L 150.470988 56.738946 
L 154.745338 56.6154 
L 159.019688 56.070823 
L 163.294038 55.226858 
L 167.568388 54.213275 
L 171.842738 53.149334 
L 176.117088 52.140176 
L 180.391438 51.273105 
L 184.665788 50.615542 
L 188.940138 50.215245 
L 193.214488 50.101208 
L 197.488838 50.285198 
L 201.763188 50.75529 
L 206.037538 51.478126 
L 210.311888 52.398813 
L 214.586238 53.439522 
L 218.860588 54.501042 
L 223.134938 55.467922 
L 227.409288 56.213848 
L 231.683638 56.617469 
L 235.957988 56.573218 
L 240.232338 56.006657 
L 244.506688 54.894214 
L 248.781038 53.272499 
L 253.055388 51.246196 
L 257.329738 48.988042 
L 261.604087 46.731065 
L 265.878438 44.751225 
L 270.152787 43.354874 
L 274.427138 42.81697 
L 278.701487 43.370215 
L 282.975838 45.173908 
L 287.250187 48.294803 
L 291.524538 52.698985 
L 295.798888 58.250589 
L 300.073238 64.727058 
L 304.347588 71.836418 
L 308.621938 79.250995 
L 312.896287 86.634197 
L 317.170637 93.664294 
L 321.444987 100.067541 
L 325.719337 105.636043 
L 329.993688 110.240715 
L 334.268037 113.832345 
L 338.542388 116.436724 
L 342.816737 118.150801 
L 347.091088 119.134488 
L 351.365437 119.576659 
L 355.639788 119.68339 
L 359.914137 119.662374 
L 364.188488 119.705656 
L 368.462837 119.977627 
L 372.737188 120.610822 
L 377.011537 121.708027 
L 381.285888 123.333606 
L 385.560237 125.530065 
L 389.834587 128.324376 
L 394.108937 131.734707 
L 398.383287 135.787768 
L 402.657638 140.512862 
L 406.931987 145.957086 
L 411.206338 152.183257 
L 415.480687 159.260864 
L 419.755038 167.259147 
L 424.029387 176.232688 
L 428.303738 186.19587 
L 432.578087 197.108641 
L 436.852438 208.853018 
L 441.126787 221.212509 
L 445.401138 233.862324 
L 449.675487 246.366219 
L 453.949838 258.182067 
L 458.224187 268.681838 
L 462.498537 277.185317 
L 466.772888 283.006641 
L 471.047237 285.510917 
L 475.321588 284.176301 
L 479.595937 278.655272 
" clip-path="url(#pef26a9d631)" style="fill: none; stroke: #1f77b4; stroke-width: 2.5; stroke-linecap: round"/>
   </g>
   <g id="line2d_27">
    <path d="M 52.160938 236.388347 
L 56.435288 225.229102 
L 60.709638 211.285638 
L 64.983988 195.004284 
L 69.258338 176.968421 
L 73.532688 157.862472 
L 77.807038 138.426664 
L 82.081388 119.406212 
L 86.355738 101.499469 
L 90.630088 85.309976 
L 94.904438 71.307128 
L 99.178788 59.802237 
L 103.453138 50.932716 
L 107.727488 44.660242 
L 112.001838 40.795782 
L 116.276188 39.031761 
L 120.550538 38.968206 
L 124.824888 40.165544 
L 129.099238 42.180499 
L 133.373588 44.598846 
L 137.647938 47.066735 
L 141.922288 49.30412 
L 146.196638 51.118684 
L 150.470988 52.404031 
L 154.745338 53.134992 
L 159.019688 53.352827 
L 163.294038 53.146902 
L 167.568388 52.646061 
L 171.842738 51.989823 
L 176.117088 51.315819 
L 180.391438 50.745862 
L 184.665788 50.37371 
L 188.940138 50.25815 
L 193.214488 50.420368 
L 197.488838 50.845981 
L 201.763188 51.483719 
L 206.037538 52.255814 
L 210.311888 53.067105 
L 214.586238 53.813336 
L 218.860588 54.390981 
L 223.134938 54.707534 
L 227.409288 54.687488 
L 231.683638 54.286656 
L 235.957988 53.491688 
L 240.232338 52.323935 
L 244.506688 50.842703 
L 248.781038 49.139441 
L 253.055388 47.332855 
L 257.329738 45.560939 
L 261.604087 43.972668 
L 265.878438 42.718913 
L 270.152787 41.952584 
L 274.427138 41.797757 
L 278.701487 42.361253 
L 282.975838 43.722729 
L 287.250187 45.930026 
L 291.524538 48.996033 
L 295.798888 52.894027 
L 300.073238 57.557639 
L 304.347588 62.87689 
L 308.621938 68.70624 
L 312.896287 74.870956 
L 317.170637 81.168572 
L 321.444987 87.39062 
L 325.719337 93.333124 
L 329.993688 98.813008 
L 334.268037 103.683536 
L 338.542388 107.845131 
L 342.816737 111.256188 
L 347.091088 113.944885 
L 351.365437 115.994657 
L 355.639788 117.53806 
L 359.914137 118.743329 
L 364.188488 119.797104 
L 368.462837 120.884574 
L 372.737188 122.171006 
L 377.011537 123.790667 
L 381.285888 125.835313 
L 385.560237 128.354832 
L 389.834587 131.363644 
L 394.108937 134.849794 
L 398.383287 138.794064 
L 402.657638 143.17354 
L 406.931987 147.983535 
L 411.206338 153.243041 
L 415.480687 158.991757 
L 419.755038 165.2852 
L 424.029387 172.180511 
L 428.303738 179.7122 
L 432.578087 187.873618 
L 436.852438 196.593169 
L 441.126787 205.715474 
L 445.401138 214.993032 
L 449.675487 224.087149 
L 453.949838 232.578696 
L 458.224187 239.990419 
L 462.498537 245.818269 
L 466.772888 249.56889 
L 471.047237 250.799763 
L 475.321588 249.158344 
L 479.595937 244.41667 
" clip-path="url(#pef26a9d631)" style="fill: none; stroke-dasharray: 9.25,4; stroke-dashoffset: 0; stroke: #d62728; stroke-width: 2.5"/>
   </g>
  </g>
 </g>
 <defs>
  <clipPath id="pef26a9d631">
   <rect x="52.160938" y="22.318125" width="427.435" height="292.6"/>
  </clipPath>
 </defs>
</svg>
