<?xml version="1.0" encoding="utf-8" standalone="no"?>
<!DOCTYPE svg PUBLIC "-//W3C//DTD SVG 1.1//EN"
  "http://www.w3.org/Graphics/SVG/1.1/DTD/svg11.dtd">
<svg xmlns:xlink="http://www.w3.org/1999/xlink" width="496.339687pt" height="352.474375pt" viewBox="0 0 496.339687 352.474375" xmlns="http://www.w3.org/2000/svg" version="1.1">
 <metadata>
  <rdf:RDF xmlns:dc="http://purl.org/dc/elements/1.1/" xmlns:cc="http://creativecommons.org/ns#" xmlns:rdf="http://www.w3.org/1999/02/22-rdf-syntax-ns#">
   <cc:Work>
    <dc:type rdf:resource="http://purl.org/dc/dcmitype/StillImage"/>
    <dc:date>2026-08-25T19:09:47.250665</dc:date>
    <dc:format>image/svg+xml</dc:format>
    <dc:creator>
     <cc:Agent>
      <dc:title>Matplotlib v3.10.8, https://matplotlib.org/</dc:title>
     </cc:Agent>
    </dc:creator>
   </cc:Work>
  </rdf:RDF>
 </metadata>
 <defs>
  <style type="text/css">*{stroke-linejoin: round; stroke-linecap: butt}</style>
 </defs>
 <g id="figure_1">
  <g id="patch_1">
   <path d="M 0 352.474375 
L 496.339687 352.474375 
L 496.339687 0 
L 0 0 
z
" style="fill: #ffffff"/>
  </g>
  <g id="axes_1">
   <g id="patch_2">
    <path d="M 52.160938 314.918125 
L 479.595937 314.918125 
L 479.595937 22.318125 
L 52.160938 22.318125 
z
" style="fill: #ffffff"/>
   </g>
   <g id="line2d_1">
    <path d="M 52.160938 314.918125 
L 52.160938 22.318125 
" clip-path="url(#p1f4aac6556)" style="fill: none; stroke: #bfbfbf; stroke-width: 0.8; stroke-linecap: square"/>
   </g>
   <g id="matplotlib.axis_1">
    <g id="xtick_1">
     <g id="line2d_2">
      <path d="M 52.160938 314.918125 
L 52.160938 22.318125 
" clip-path="url(#p1f4aac6556)" style="fill: none; stroke: #b0b0b0; stroke-opacity: 0.3; stroke-width: 0.8; stroke-linecap: square"/>
     </g>
     <g id="line2d_3">
      <defs>
       <path id="m87c4081baa" d="M 0 0 
L 0 3.5 
" style="stroke: #000000; stroke-width: 0.8"/>
      </defs>
      <g>
       <use xlink:href="#m87c4081baa" x="52.160938" y="314.918125" style="stroke: #000000; stroke-width: 0.8"/>
      </g>
     </g>
     <g id="text_1">
      <text style="font-size: 10px; font-family: 'DejaVu Sans', 'Bitstream Vera Sans', 'Computer Modern Sans Serif', 'Lucida Grande', 'Verdana', 'Geneva', 'Lucid', 'Arial', 'Helvetica', 'Avant Garde', sans-serif; text-anchor: middle" x="52.160938" y="329.516563" transform="rotate(-0 52.160938 329.516563)">0</text>
     </g>
    </g>
    <g id="xtick_2">
     <g id="line2d_4">
      <path d="M 137.647938 314.918125 
L 137.647938 22.318125 
" clip-path="url(#p1f4aac6556)" style="fill: none; stroke: #b0b0b0; stroke-opacity: 0.3; stroke-width: 0.8; stroke-linecap: square"/>
     </g>
     <g id="line2d_5">
      <g>
       <use xlink:href="#m87c4081baa" x="137.647938" y="314.918125" style="stroke: #000000; stroke-width: 0.8"/>
      </g>
     </g>
     <g id="text_2">
      <text style="font-size: 10px; font-family: 'DejaVu Sans', 'Bitstream Vera Sans', 'Computer Modern Sans Serif', 'Lucida Grande', 'Verdana', 'Geneva', 'Lucid', 'Arial', 'Helvetica', 'Avant Garde', sans-serif; text-anchor: middle" x="137.647938" y="329.516563" transform="rotate(-0 137.647938 329.516563)">20</text>
     </g>
    </g>
    <g id="xtick_3">
     <g id="line2d_6">
      <path d="M 223.134938 314.918125 
L 223.134938 22.318125 
" clip-path="url(#p1f4aac6556)" style="fill: none; stroke: #b0b0b0; stroke-opacity: 0.3; stroke-width: 0.8; stroke-linecap: square"/>
     </g>
     <g id="line2d_7">
      <g>
       <use xlink:href="#m87c4081baa" x="223.134938" y="314.918125" style="stroke: #000000; stroke-width: 0.8"/>
      </g>
     </g>
     <g id="text_3">
      <text style="font-size: 10px; font-family: 'DejaVu Sans', 'Bitstream Vera Sans', 'Computer Modern Sans Serif', 'Lucida Grande', 'Verdana', 'Geneva', 'Lucid', 'Arial', 'Helvetica', 'Avant Garde', sans-serif; text-anchor: middle" x="223.134938" y="329.516563" transform="rotate(-0 223.134938 329.516563)">40</text>
     </g>
    </g>
    <g id="xtick_4">
     <g id="line2d_8">
      <path d="M 308.621938 314.918125 
L 308.621938 22.318125 
" clip-path="url(#p1f4aac6556)" style="fill: none; stroke: #b0b0b0; stroke-opacity: 0.3; stroke-width: 0.8; stroke-linecap: square"/>
     </g>
     <g id="line2d_9">
      <g>
       <use xlink:href="#m87c4081baa" x="308.621938" y="314.918125" style="stroke: #000000; stroke-width: 0.8"/>
      </g>
     </g>
     <g id="text_4">
      <text style="font-size: 10px; font-family: 'DejaVu Sans', 'Bitstream Vera Sans', 'Computer Modern Sans Serif', 'Lucida Grande', 'Verdana', 'Geneva', 'Lucid', 'Arial', 'Helvetica', 'Avant Garde', sans-serif; text-anchor: middle" x="308.621938" y="329.516563" transform="rotate(-0 308.621938 329.516563)">60</text>
     </g>
    </g>
    <g id="xtick_5">
     <g id="line2d_10">
      <path d="M 394.108937 314.918125 
L 394.108937 22.318125 
" clip-path="url(#p1f4aac6556)" style="fill: none; stroke: #b0b0b0; stroke-opacity: 0.3; stroke-width: 0.8; stroke-linecap: square"/>
     </g>
     <g id="line2d_11">
      <g>
       <use xlink:href="#m87c4081baa" x="394.108937" y="314.918125" style="stroke: #000000; stroke-width: 0.8"/>
      </g>
     </g>
     <g id="text_5">
      <text style="font-size: 10px; font-family: 'DejaVu Sans', 'Bitstream Vera Sans', 'Computer Modern Sans Serif', 'Lucida Grande', 'Verdana', 'Geneva', 'Lucid', 'Arial', 'Helvetica', 'Avant Garde', sans-serif; text-anchor: middle" x="394.108937" y="329.516563" transform="rotate(-0 394.108937 329.516563)">80</text>
     </g>
    </g>
    <g id="xtick_6">
     <g id="line2d_12">
      <path d="M 479.595937 314.918125 
L 479.595937 22.318125 
" clip-path="url(#p1f4aac6556)" style="fill: none; stroke: #b0b0b0; stroke-opacity: 0.3; stroke-width: 0.8; stroke-linecap: square"/>
     </g>
     <g id="line2d_13">
      <g>
       <use xlink:href="#m87c4081baa" x="479.595937" y="314.918125" style="stroke: #000000; stroke-width: 0.8"/>
      </g>
     </g>
     <g id="text_6">
      <text style="font-size: 10px; font-family: 'DejaVu Sans', 'Bitstream Vera Sans', 'Computer Modern Sans Serif', 'Lucida Grande', 'Verdana', 'Geneva', 'Lucid', 'Arial', 'Helvetica', 'Avant Garde', sans-serif; text-anchor: middle" x="479.595937" y="329.516563" transform="rotate(-0 479.595937 329.516563)">100</text>
     </g>
    </g>
    <g id="text_7">
     <text style="font-size: 10px; font-family: 'DejaVu Sans', 'Bitstream Vera Sans', 'Computer Modern Sans Serif', 'Lucida Grande', 'Verdana', 'Geneva', 'Lucid', 'Arial', 'Helvetica', 'Avant Garde', sans-serif; text-anchor: middle" x="265.878438" y="343.194687" transform="rotate(-0 265.878438 343.194687)">Gait cycle (%)</text>
    </g>
   </g>
   <g id="matplotlib.axis_2">
    <g id="ytick_1">
     <g id="line2d_14">
      <path d="M 52.160938 254.864082 
L 479.595937 254.864082 
" clip-path="url(#p1f4aac6556)" style="fill: none; stroke: #b0b0b0; stroke-opacity: 0.3; stroke-width: 0.8; stroke-linecap: square"/>
     </g>
     <g id="line2d_15">
      <defs>
       <path id="mc983b2a54d" d="M 0 0 
L -3.5 0 
" style="stroke: #000000; stroke-width: 0.8"/>
      </defs>
      <g>
       <use xlink:href="#mc983b2a54d" x="52.160938" y="254.864082" style="stroke: #000000; stroke-width: 0.8"/>
      </g>
     </g>
     <g id="text_8">
      <text style="font-size: 10px; font-family: 'DejaVu Sans', 'Bitstream Vera Sans', 'Computer Modern Sans Serif', 'Lucida Grande', 'Verdana', 'Geneva', 'Lucid', 'Arial', 'Helvetica', 'Avant Garde', sans-serif; text-anchor: end" x="45.160938" y="258.663301" transform="rotate(-0 45.160938 258.663301)">−0.4</text>
     </g>
    </g>
    <g id="ytick_2">
     <g id="line2d_16">
      <path d="M 52.160938 192.512327 
L 479.595937 192.512327 
" clip-path="url(#p1f4aac6556)" style="fill: none; stroke: #b0b0b0; stroke-opacity: 0.3; stroke-width: 0.8; stroke-linecap: square"/>
     </g>
     <g id="line2d_17">
      <g>
       <use xlink:href="#mc983b2a54d" x="52.160938" y="192.512327" style="stroke: #000000; stroke-width: 0.8"/>
      </g>
     </g>
     <g id="text_9">
      <text style="font-size: 10px; font-family: 'DejaVu Sans', 'Bitstream Vera Sans', 'Computer Modern Sans Serif', 'Lucida Grande', 'Verdana', 'Geneva', 'Lucid', 'Arial', 'Helvetica', 'Avant Garde', sans-serif; text-anchor: end" x="45.160938" y="196.311546" transform="rotate(-0 45.160938 196.311546)">−0.2</text>
     </g>
    </g>
    <g id="ytick_3">
     <g id="line2d_18">
      <path d="M 52.160938 130.160573 
L 479.595937 130.160573 
" clip-path="url(#p1f4aac6556)" style="fill: none; stroke: #b0b0b0; stroke-opacity: 0.3; stroke-width: 0.8; stroke-linecap: square"/>
     </g>
     <g id="line2d_19">
      <g>
       <use xlink:href="#mc983b2a54d" x="52.160938" y="130.160573" style="stroke: #000000; stroke-width: 0.8"/>
      </g>
     </g>
     <g id="text_10">
      <text style="font-size: 10px; font-family: 'DejaVu Sans', 'Bitstream Vera Sans', 'Computer Modern Sans Serif', 'Lucida Grande', 'Verdana', 'Geneva', 'Lucid', 'Arial', 'Helvetica', 'Avant Garde', sans-serif; text-anchor: end" x="45.160938" y="133.959792" transform="rotate(-0 45.160938 133.959792)">0.0</text>
     </g>
    </g>
    <g id="ytick_4">
     <g id="line2d_20">
      <path d="M 52.160938 67.808818 
L 479.595937 67.808818 
" clip-path="url(#p1f4aac6556)" style="fill: none; stroke: #b0b0b0; stroke-opacity: 0.3; stroke-width: 0.8; stroke-linecap: square"/>
     </g>
     <g id="line2d_21">
      <g>
       <use xlink:href="#mc983b2a54d" x="52.160938" y="67.808818" style="stroke: #000000; stroke-width: 0.8"/>
      </g>
     </g>
     <g id="text_11">
      <text style="font-size: 10px; font-family: 'DejaVu Sans', 'Bitstream Vera Sans', 'Computer Modern Sans Serif', 'Lucida Grande', 'Verdana', 'Geneva', 'Lucid', 'Arial', 'Helvetica', 'Avant Garde', sans-serif; text-anchor: end" x="45.160938" y="71.608037" transform="rotate(-0 45.160938 71.608037)">0.2</text>
     </g>
    </g>
    <g id="text_12">
     <text style="font-size: 10px; font-family: 'DejaVu Sans', 'Bitstream Vera Sans', 'Computer Modern Sans Serif', 'Lucida Grande', 'Verdana', 'Geneva', 'Lucid', 'Arial', 'Helvetica', 'Avant Garde', sans-serif; text-anchor: middle" x="14.798438" y="168.618125" transform="rotate(-90 14.798438 168.618125)">Moment (N·m/kg)</text>
    </g>
   </g>
   <g id="patch_3">
    <path d="M 52.160938 314.918125 
L 52.160938 22.318125 
" style="fill: none; stroke: #000000; stroke-width: 0.8; stroke-linejoin: miter; stroke-linecap: square"/>
   </g>
   <g id="patch_4">
    <path d="M 479.595937 314.918125 
L 479.595937 22.318125 
" style="fill: none; stroke: #000000; stroke-width: 0.8; stroke-linejoin: miter; stroke-linecap: square"/>
   </g>
   <g id="patch_5">
    <path d="M 52.160938 314.918125 
L 479.595937 314.918125 
" style="fill: none; stroke: #000000; stroke-width: 0.8; stroke-linejoin: miter; stroke-linecap: square"/>
   </g>
   <g id="patch_6">
    <path d="M 52.160938 22.318125 
L 479.595937 22.318125 
" style="fill: none; stroke: #000000; stroke-width: 0.8; stroke-linejoin: miter; stroke-linecap: square"/>
   </g>
   <g id="text_13">
    <text style="font-size: 12px; font-family: 'DejaVu Sans', 'Bitstream Vera Sans', 'Computer Modern Sans Serif', 'Lucida Grande', 'Verdana', 'Geneva', 'Lucid', 'Arial', 'Helvetica', 'Avant Garde', sans-serif; text-anchor: middle" x="265.878438" y="16.318125" transform="rotate(-0 265.878438 16.318125)">RD_0p8mps — GT vs Model Hip flexion (R) (n=8 subjects)</text>
   </g>
   <g id="FillBetweenPolyCollection_1">
    <defs>
     <path id="me04f1fda9f" d="M 52.160938 -176.859119 
L 52.160938 -150.565014 
L 56.435288 -137.601466 
L 60.709638 -120.218804 
L 64.983988 -102.412099 
L 69.258338 -87.152942 
L 73.532688 -75.973479 
L 77.807038 -68.715944 
L 82.081388 -64.229546 
L 86.355738 -61.01403 
L 90.630088 -58.094404 
L 94.904438 -55.757132 
L 99.178788 -54.564134 
L 103.453138 -54.81587 
L 107.727488 -56.668609 
L 112.001838 -60.130516 
L 116.276188 -65.048789 
L 120.550538 -71.113531 
L 124.824888 -77.888184 
L 129.099238 -84.928595 
L 133.373588 -91.813994 
L 137.647938 -98.250688 
L 141.922288 -104.038582 
L 146.196638 -109.101548 
L 150.470988 -113.428374 
L 154.745338 -117.050023 
L 159.019688 -120.020092 
L 163.294038 -122.405392 
L 167.568388 -124.318727 
L 171.842738 -125.904063 
L 176.117088 -127.325121 
L 180.391438 -128.747821 
L 184.665788 -130.314978 
L 188.940138 -132.128598 
L 193.214488 -134.247473 
L 197.488838 -136.688609 
L 201.763188 -139.442187 
L 206.037538 -142.498052 
L 210.311888 -145.858424 
L 214.586238 -149.534136 
L 218.860588 -153.56931 
L 223.134938 -158.03622 
L 227.409288 -163.066122 
L 231.683638 -168.791457 
L 235.957988 -175.353448 
L 240.232338 -182.816464 
L 244.506688 -191.10443 
L 248.781038 -200.000084 
L 253.055388 -209.087182 
L 257.329738 -217.847 
L 261.604087 -225.711439 
L 265.878438 -232.175397 
L 270.152787 -236.844005 
L 274.427138 -239.791209 
L 278.701487 -241.392267 
L 282.975838 -242.337403 
L 287.250187 -243.496777 
L 291.524538 -245.617744 
L 295.798888 -249.166645 
L 300.073238 -254.222522 
L 304.347588 -260.425716 
L 308.621938 -267.002003 
L 312.896287 -272.75302 
L 317.170637 -276.186655 
L 321.444987 -276.776319 
L 325.719337 -275.349121 
L 329.993688 -272.675221 
L 334.268037 -269.260793 
L 338.542388 -265.500602 
L 342.816737 -261.737715 
L 347.091088 -258.249894 
L 351.365437 -255.222268 
L 355.639788 -252.751724 
L 359.914137 -250.842759 
L 364.188488 -249.468294 
L 368.462837 -248.622475 
L 372.737188 -248.317805 
L 377.011537 -248.565678 
L 381.285888 -249.289235 
L 385.560237 -250.331381 
L 389.834587 -251.41571 
L 394.108937 -252.120702 
L 398.383287 -251.772574 
L 402.657638 -249.306328 
L 406.931987 -243.446281 
L 411.206338 -234.058978 
L 415.480687 -221.993991 
L 419.755038 -208.260561 
L 424.029387 -193.991442 
L 428.303738 -180.367131 
L 432.578087 -168.47299 
L 436.852438 -159.12104 
L 441.126787 -152.62036 
L 445.401138 -148.811383 
L 449.675487 -147.442877 
L 453.949838 -148.389592 
L 458.224187 -151.238177 
L 462.498537 -155.093624 
L 466.772888 -158.76046 
L 471.047237 -161.038872 
L 475.321588 -160.851401 
L 479.595937 -157.138357 
L 479.595937 -188.706794 
L 479.595937 -188.706794 
L 475.321588 -199.51896 
L 471.047237 -205.069293 
L 466.772888 -204.835482 
L 462.498537 -200.223596 
L 458.224187 -193.167667 
L 453.949838 -186.110638 
L 449.675487 -181.331646 
L 445.401138 -180.540079 
L 441.126787 -184.451122 
L 436.852438 -192.540611 
L 432.578087 -203.320115 
L 428.303738 -215.132522 
L 424.029387 -226.603411 
L 419.755038 -236.741852 
L 415.480687 -245.011922 
L 411.206338 -251.331605 
L 406.931987 -256.077468 
L 402.657638 -260.025549 
L 398.383287 -263.396833 
L 394.108937 -265.644057 
L 389.834587 -266.564111 
L 385.560237 -266.468795 
L 381.285888 -265.839583 
L 377.011537 -265.181545 
L 372.737188 -264.934054 
L 368.462837 -265.459906 
L 364.188488 -266.994333 
L 359.914137 -269.628427 
L 355.639788 -273.251555 
L 351.365437 -277.59629 
L 347.091088 -282.269217 
L 342.816737 -286.801372 
L 338.542388 -290.698733 
L 334.268037 -293.467205 
L 329.993688 -294.724816 
L 325.719337 -294.255284 
L 321.444987 -292.267552 
L 317.170637 -289.627682 
L 312.896287 -287.699103 
L 308.621938 -286.85673 
L 304.347588 -286.709389 
L 300.073238 -287.114613 
L 295.798888 -288.037391 
L 291.524538 -289.403412 
L 287.250187 -290.978284 
L 282.975838 -292.429863 
L 278.701487 -293.366778 
L 274.427138 -293.423714 
L 270.152787 -292.199423 
L 265.878438 -289.455679 
L 261.604087 -284.817942 
L 257.329738 -278.341015 
L 253.055388 -270.105682 
L 248.781038 -260.469659 
L 244.506688 -249.923017 
L 240.232338 -239.083583 
L 235.957988 -228.560063 
L 231.683638 -218.894742 
L 227.409288 -210.51606 
L 223.134938 -203.681575 
L 218.860588 -198.477308 
L 214.586238 -194.788186 
L 210.311888 -192.389997 
L 206.037538 -190.99856 
L 201.763188 -190.322531 
L 197.488838 -190.10517 
L 193.214488 -190.13068 
L 188.940138 -190.226001 
L 184.665788 -190.251638 
L 180.391438 -190.082757 
L 176.117088 -189.608233 
L 171.842738 -188.695503 
L 167.568388 -187.200406 
L 163.294038 -184.958516 
L 159.019688 -181.807836 
L 154.745338 -177.583673 
L 150.470988 -172.210399 
L 146.196638 -165.66894 
L 141.922288 -158.056527 
L 137.647938 -149.589749 
L 133.373588 -140.553371 
L 129.099238 -131.275139 
L 124.824888 -122.061888 
L 120.550538 -113.185275 
L 116.276188 -104.875957 
L 112.001838 -97.325198 
L 107.727488 -90.678485 
L 103.453138 -85.079354 
L 99.178788 -80.693444 
L 94.904438 -77.784164 
L 90.630088 -76.854506 
L 86.355738 -78.840676 
L 82.081388 -84.592401 
L 77.807038 -93.864976 
L 73.532688 -105.706861 
L 69.258338 -119.072688 
L 64.983988 -132.92561 
L 60.709638 -146.828234 
L 56.435288 -161.2027 
L 52.160938 -176.859119 
z
" style="stroke: #1f77b4; stroke-opacity: 0.25"/>
    </defs>
    <g clip-path="url(#p1f4aac6556)">
     <use xlink:href="#me04f1fda9f" x="0" y="352.474375" style="fill: #1f77b4; fill-opacity: 0.25; stroke: #1f77b4; stroke-opacity: 0.25"/>
    </g>
   </g>
   <g id="legend_1">
    <g id="patch_7">
     <path d="M 59.160938 89.030625 
L 152.725 89.030625 
Q 154.725 89.030625 154.725 87.030625 
L 154.725 29.318125 
Q 154.725 27.318125 152.725 27.318125 
L 59.160938 27.318125 
Q 57.160938 27.318125 57.160938 29.318125 
L 57.160938 87.030625 
Q 57.160938 89.030625 59.160938 89.030625 
z
" style="fill: #ffffff; opacity: 0.95; stroke: #cccccc; stroke-linejoin: miter"/>
    </g>
    <g id="patch_8">
     <path d="M 61.160938 38.916562 
L 81.160938 38.916562 
L 81.160938 31.916562 
L 61.160938 31.916562 
z
" style="fill: #1f77b4; fill-opacity: 0.25; stroke: #1f77b4; stroke-opacity: 0.25; stroke-linejoin: miter"/>
    </g>
    <g id="text_14">
     <text style="font-size: 10px; font-family: 'DejaVu Sans', 'Bitstream Vera Sans', 'Computer Modern Sans Serif', 'Lucida Grande', 'Verdana', 'Geneva', 'Lucid', 'Arial', 'Helvetica', 'Avant Garde', sans-serif; text-anchor: start" x="89.160938" y="38.916562" transform="rotate(-0 89.160938 38.916562)">GT ± std</text>
    </g>
    <g id="line2d_22">
     <path d="M 61.160938 50.094688 
L 71.160938 50.094688 
L 81.160938 50.094688 
" style="fill: none; stroke: #1f77b4; stroke-width: 2.5; stroke-linecap: round"/>
    </g>
    <g id="text_15">
     <text style="font-size: 10px; font-family: 'DejaVu Sans', 'Bitstream Vera Sans', 'Computer Modern Sans Serif', 'Lucida Grande', 'Verdana', 'Geneva', 'Lucid', 'Arial', 'Helvetica', 'Avant Garde', sans-serif; text-anchor: start" x="89.160938" y="53.594688" transform="rotate(-0 89.160938 53.594688)">GT mean</text>
    </g>
    <g id="patch_9">
     <path d="M 61.160938 68.272812 
L 81.160938 68.272812 
L 81.160938 61.272812 
L 61.160938 61.272812 
z
" style="fill: #d62728; fill-opacity: 0.25; stroke: #d62728; stroke-opacity: 0.25; stroke-linejoin: miter"/>
    </g>
    <g id="text_16">
     <text style="font-size: 10px; font-family: 'DejaVu Sans', 'Bitstream Vera Sans', 'Computer Modern Sans Serif', 'Lucida Grande', 'Verdana', 'Geneva', 'Lucid', 'Arial', 'Helvetica', 'Avant Garde', sans-serif; text-anchor: start" x="89.160938" y="68.272812" transform="rotate(-0 89.160938 68.272812)">Model ± std</text>
    </g>
    <g id="line2d_23">
     <path d="M 61.160938 79.450938 
L 71.160938 79.450938 
L 81.160938 79.450938 
" style="fill: none; stroke-dasharray: 9.25,4; stroke-dashoffset: 0; stroke: #d62728; stroke-width: 2.5"/>
    </g>
    <g id="text_17">
     <text style="font-size: 10px; font-family: 'DejaVu Sans', 'Bitstream Vera Sans', 'Computer Modern Sans Serif', 'Lucida Grande', 'Verdana', 'Geneva', 'Lucid', 'Arial', 'Helvetica', 'Avant Garde', sans-serif; text-anchor: start" x="89.160938" y="82.950938" transform="rotate(-0 89.160938 82.950938)">Model mean</text>
    </g>
   </g>
   <g id="FillBetweenPolyCollection_2">
    <defs>
     <path id="m02daaaae9d" d="M 52.160938 -151.587633 
L 52.160938 -119.835735 
L 56.435288 -117.940907 
L 60.709638 -111.484563 
L 64.983988 -99.615541 
L 69.258338 -85.858738 
L 73.532688 -72.854219 
L 77.807038 -62.101534 
L 82.081388 -54.586085 
L 86.355738 -50.85625 
L 90.630088 -50.899774 
L 94.904438 -54.481656 
L 99.178788 -60.968331 
L 103.453138 -69.704058 
L 107.727488 -79.922048 
L 112.001838 -90.963003 
L 116.276188 -102.201568 
L 120.550538 -113.118847 
L 124.824888 -123.250681 
L 129.099238 -132.323729 
L 133.373588 -140.206493 
L 137.647938 -146.972792 
L 141.922288 -152.759011 
L 146.196638 -157.754744 
L 150.470988 -162.131061 
L 154.745338 -166.04138 
L 159.019688 -169.615828 
L 163.294038 -172.984084 
L 167.568388 -176.275778 
L 171.842738 -179.611543 
L 176.117088 -183.096771 
L 180.391438 -186.800929 
L 184.665788 -190.743986 
L 188.940138 -194.897622 
L 193.214488 -199.200201 
L 197.488838 -203.595564 
L 201.763188 -208.043713 
L 206.037538 -212.552195 
L 210.311888 -217.157861 
L 214.586238 -221.909892 
L 218.860588 -226.847116 
L 223.134938 -231.983725 
L 227.409288 -237.310825 
L 231.683638 -242.774854 
L 235.957988 -248.303241 
L 240.232338 -253.789007 
L 244.506688 -259.114925 
L 248.781038 -264.141835 
L 253.055388 -268.731845 
L 257.329738 -272.719534 
L 261.604087 -275.950177 
L 265.878438 -278.284315 
L 270.152787 -279.655817 
L 274.427138 -280.195469 
L 278.701487 -280.154244 
L 282.975838 -279.863094 
L 287.250187 -279.658508 
L 291.524538 -279.792762 
L 295.798888 -280.407344 
L 300.073238 -281.524459 
L 304.347588 -283.050821 
L 308.621938 -284.811114 
L 312.896287 -286.579452 
L 317.170637 -288.091765 
L 321.444987 -289.106307 
L 325.719337 -289.411501 
L 329.993688 -288.865799 
L 334.268037 -287.442981 
L 338.542388 -285.218293 
L 342.816737 -282.355996 
L 347.091088 -279.069526 
L 351.365437 -275.534227 
L 355.639788 -271.874874 
L 359.914137 -268.188863 
L 364.188488 -264.584588 
L 368.462837 -261.147605 
L 372.737188 -257.873496 
L 377.011537 -254.613019 
L 381.285888 -251.090479 
L 385.560237 -246.962631 
L 389.834587 -241.965713 
L 394.108937 -236.064382 
L 398.383287 -229.418319 
L 402.657638 -222.233921 
L 406.931987 -214.60155 
L 411.206338 -206.507907 
L 415.480687 -197.953565 
L 419.755038 -189.083171 
L 424.029387 -180.170639 
L 428.303738 -171.522705 
L 432.578087 -163.383336 
L 436.852438 -155.900731 
L 441.126787 -149.126552 
L 445.401138 -143.059421 
L 449.675487 -137.681178 
L 453.949838 -132.994261 
L 458.224187 -129.020867 
L 462.498537 -125.795091 
L 466.772888 -123.357259 
L 471.047237 -121.686538 
L 475.321588 -120.789877 
L 479.595937 -120.321291 
L 479.595937 -158.656168 
L 479.595937 -158.656168 
L 475.321588 -166.81283 
L 471.047237 -173.013859 
L 466.772888 -177.118393 
L 462.498537 -179.77521 
L 458.224187 -181.511267 
L 453.949838 -182.9697 
L 449.675487 -184.65102 
L 445.401138 -186.88375 
L 441.126787 -189.800513 
L 436.852438 -193.401858 
L 432.578087 -197.578073 
L 428.303738 -202.211287 
L 424.029387 -207.22929 
L 419.755038 -212.652934 
L 415.480687 -218.531509 
L 411.206338 -224.87257 
L 406.931987 -231.523153 
L 402.657638 -238.171476 
L 398.383287 -244.513379 
L 394.108937 -250.386619 
L 389.834587 -255.800667 
L 385.560237 -260.853045 
L 381.285888 -265.564275 
L 377.011537 -269.863818 
L 372.737188 -273.697094 
L 368.462837 -277.150904 
L 364.188488 -280.429631 
L 359.914137 -283.828911 
L 355.639788 -287.582344 
L 351.365437 -291.784298 
L 347.091088 -296.328516 
L 342.816737 -300.963292 
L 338.542388 -305.404252 
L 334.268037 -309.364983 
L 329.993688 -312.617916 
L 325.719337 -314.968512 
L 321.444987 -316.367806 
L 317.170637 -316.85625 
L 312.896287 -316.581367 
L 308.621938 -315.770001 
L 304.347588 -314.638785 
L 300.073238 -313.372518 
L 295.798888 -312.05645 
L 291.524538 -310.688222 
L 287.250187 -309.204741 
L 282.975838 -307.540303 
L 278.701487 -305.637325 
L 274.427138 -303.513532 
L 270.152787 -301.190656 
L 265.878438 -298.702333 
L 261.604087 -295.95719 
L 257.329738 -292.883743 
L 253.055388 -289.372528 
L 248.781038 -285.386071 
L 244.506688 -280.966294 
L 240.232338 -276.228841 
L 235.957988 -271.31994 
L 231.683638 -266.383639 
L 227.409288 -261.539805 
L 223.134938 -256.866892 
L 218.860588 -252.402804 
L 214.586238 -248.1475 
L 210.311888 -244.08166 
L 206.037538 -240.188006 
L 201.763188 -236.461127 
L 197.488838 -232.90969 
L 193.214488 -229.550708 
L 188.940138 -226.397251 
L 184.665788 -223.450737 
L 180.391438 -220.711761 
L 176.117088 -218.173259 
L 171.842738 -215.80682 
L 167.568388 -213.544502 
L 163.294038 -211.259693 
L 159.019688 -208.771109 
L 154.745338 -205.843802 
L 150.470988 -202.250847 
L 146.196638 -197.784795 
L 141.922288 -192.3278 
L 137.647938 -185.912491 
L 133.373588 -178.70973 
L 129.099238 -171.055069 
L 124.824888 -163.33671 
L 120.550538 -155.935482 
L 116.276188 -149.184955 
L 112.001838 -143.354321 
L 107.727488 -138.664289 
L 103.453138 -135.242147 
L 99.178788 -133.091555 
L 94.904438 -132.063865 
L 90.630088 -131.905465 
L 86.355738 -132.225134 
L 82.081388 -132.671048 
L 77.807038 -132.925655 
L 73.532688 -132.878803 
L 69.258338 -132.642075 
L 64.983988 -132.734437 
L 60.709638 -134.812163 
L 56.435288 -141.559902 
L 52.160938 -151.587633 
z
" style="stroke: #d62728; stroke-opacity: 0.25"/>
    </defs>
    <g clip-path="url(#p1f4aac6556)">
     <use xlink:href="#m02daaaae9d" x="0" y="352.474375" style="fill: #d62728; fill-opacity: 0.25; stroke: #d62728; stroke-opacity: 0.25"/>
    </g>
   </g>
   <g id="line2d_24">
    <path d="M 52.160938 188.762308 
L 56.435288 203.072292 
L 60.709638 218.950856 
L 64.983988 234.805521 
L 69.258338 249.36156 
L 73.532688 261.634205 
L 77.807038 271.183915 
L 82.081388 278.063401 
L 86.355738 282.547022 
L 90.630088 284.99992 
L 94.904438 285.703727 
L 99.178788 284.845586 
L 103.453138 282.526763 
L 107.727488 278.800828 
L 112.001838 273.746518 
L 116.276188 267.512002 
L 120.550538 260.324972 
L 124.824888 252.499339 
L 129.099238 244.372508 
L 133.373588 236.290692 
L 137.647938 228.554156 
L 141.922288 221.426821 
L 146.196638 215.089131 
L 150.470988 209.654989 
L 154.745338 205.157527 
L 159.019688 201.560411 
L 163.294038 198.792421 
L 167.568388 196.714809 
L 171.842738 195.174592 
L 176.117088 194.007698 
L 180.391438 193.059086 
L 184.665788 192.191067 
L 188.940138 191.297075 
L 193.214488 190.285298 
L 197.488838 189.077485 
L 201.763188 187.592016 
L 206.037538 185.726069 
L 210.311888 183.350165 
L 214.586238 180.313214 
L 218.860588 176.451066 
L 223.134938 171.615477 
L 227.409288 165.683284 
L 231.683638 158.631276 
L 235.957988 150.51762 
L 240.232338 141.524352 
L 244.506688 131.960652 
L 248.781038 122.239504 
L 253.055388 112.877943 
L 257.329738 104.380367 
L 261.604087 97.209685 
L 265.878438 91.658837 
L 270.152787 87.952661 
L 274.427138 85.866913 
L 278.701487 85.094852 
L 282.975838 85.090742 
L 287.250187 85.236844 
L 291.524538 84.963797 
L 295.798888 83.872357 
L 300.073238 81.805807 
L 304.347588 78.906823 
L 308.621938 75.545008 
L 312.896287 72.248313 
L 317.170637 69.567206 
L 321.444987 67.95244 
L 325.719337 67.672172 
L 329.993688 68.774357 
L 334.268037 71.110376 
L 338.542388 74.374708 
L 342.816737 78.204832 
L 347.091088 82.214819 
L 351.365437 86.065096 
L 355.639788 89.472735 
L 359.914137 92.238782 
L 364.188488 94.243061 
L 368.462837 95.433184 
L 372.737188 95.848446 
L 377.011537 95.600763 
L 381.285888 94.909966 
L 385.560237 94.074287 
L 389.834587 93.484465 
L 394.108937 93.591996 
L 398.383287 94.889672 
L 402.657638 97.808437 
L 406.931987 102.7125 
L 411.206338 109.779084 
L 415.480687 118.971418 
L 419.755038 129.973168 
L 424.029387 142.176948 
L 428.303738 154.724548 
L 432.578087 166.577822 
L 436.852438 176.643549 
L 441.126787 183.938634 
L 445.401138 187.798644 
L 449.675487 188.087113 
L 453.949838 185.22426 
L 458.224187 180.271453 
L 462.498537 174.815765 
L 466.772888 170.676404 
L 471.047237 169.420292 
L 475.321588 172.289195 
L 479.595937 179.5518 
" clip-path="url(#p1f4aac6556)" style="fill: none; stroke: #1f77b4; stroke-width: 2.5; stroke-linecap: round"/>
   </g>
   <g id="line2d_25">
    <path d="M 52.160938 216.762691 
L 56.435288 222.723971 
L 60.709638 229.326012 
L 64.983988 236.299386 
L 69.258338 243.223969 
L 73.532688 249.607864 
L 77.807038 254.96078 
L 82.081388 258.845808 
L 86.355738 260.933683 
L 90.630088 261.071755 
L 94.904438 259.201614 
L 99.178788 255.444432 
L 103.453138 250.001273 
L 107.727488 243.181206 
L 112.001838 235.315713 
L 116.276188 226.781114 
L 120.550538 217.947211 
L 124.824888 209.180679 
L 129.099238 200.784976 
L 133.373588 193.016263 
L 137.647938 186.031734 
L 141.922288 179.930969 
L 146.196638 174.704605 
L 150.470988 170.283421 
L 154.745338 166.531784 
L 159.019688 163.280906 
L 163.294038 160.352487 
L 167.568388 157.564235 
L 171.842738 154.765193 
L 176.117088 151.83936 
L 180.391438 148.71803 
L 184.665788 145.377014 
L 188.940138 141.826938 
L 193.214488 138.09892 
L 197.488838 134.221748 
L 201.763188 130.221955 
L 206.037538 126.104274 
L 210.311888 121.854614 
L 214.586238 117.445679 
L 218.860588 112.849415 
L 223.134938 108.049067 
L 227.409288 103.04906 
L 231.683638 97.895129 
L 235.957988 92.662785 
L 240.232338 87.465451 
L 244.506688 82.433765 
L 248.781038 77.710422 
L 253.055388 73.422188 
L 257.329738 69.672737 
L 261.604087 66.520692 
L 265.878438 63.981051 
L 270.152787 62.051139 
L 274.427138 60.619874 
L 278.701487 59.57859 
L 282.975838 58.772677 
L 287.250187 58.042751 
L 291.524538 57.233883 
L 295.798888 56.242478 
L 300.073238 55.025886 
L 304.347588 53.629572 
L 308.621938 52.183818 
L 312.896287 50.893966 
L 317.170637 50.000368 
L 321.444987 49.737318 
L 325.719337 50.284369 
L 329.993688 51.732518 
L 334.268037 54.070393 
L 338.542388 57.163103 
L 342.816737 60.814731 
L 347.091088 64.775354 
L 351.365437 68.815112 
L 355.639788 72.745766 
L 359.914137 76.465488 
L 364.188488 79.967265 
L 368.462837 83.325121 
L 372.737188 86.68908 
L 377.011537 90.235956 
L 381.285888 94.146998 
L 385.560237 98.566537 
L 389.834587 103.591185 
L 394.108937 109.248875 
L 398.383287 115.508526 
L 402.657638 122.271676 
L 406.931987 129.412024 
L 411.206338 136.784137 
L 415.480687 144.231838 
L 419.755038 151.606322 
L 424.029387 158.774411 
L 428.303738 165.607379 
L 432.578087 171.993671 
L 436.852438 177.823081 
L 441.126787 183.010843 
L 445.401138 187.50279 
L 449.675487 191.308276 
L 453.949838 194.492394 
L 458.224187 197.208308 
L 462.498537 199.689224 
L 466.772888 202.236549 
L 471.047237 205.124177 
L 475.321588 208.673022 
L 479.595937 212.985646 
" clip-path="url(#p1f4aac6556)" style="fill: none; stroke-dasharray: 9.25,4; stroke-dashoffset: 0; stroke: #d62728; stroke-width: 2.5"/>
   </g>
  </g>
 </g>
 <defs>
  <clipPath id="p1f4aac6556">
   <rect x="52.160938" y="22.318125" width="427.435" height="292.6"/>
  </clipPath>
 </defs>
</svg>
